<svg width="100" height="100" viewBox="0 0 100 100" fill="none" xmlns="http://www.w3.org/2000/svg">
<path d="M49.1322 0.417895C49.6806 0.153812 50.3194 0.153812 50.8678 0.417895L88.2238 18.4076C88.7722 18.6717 89.1705 19.1711 89.3059 19.7645L98.5321 60.187C98.6675 60.7804 98.5254 61.4032 98.1459 61.8791L72.2947 94.2954C71.9152 94.7713 71.3397 95.0484 70.731 95.0484H29.269C28.6603 95.0484 28.0848 94.7713 27.7053 94.2954L1.85412 61.8791C1.47463 61.4032 1.33249 60.7804 1.46793 60.187L10.6941 19.7645C10.8295 19.1711 11.2278 18.6717 11.7762 18.4076L49.1322 0.417895Z" fill="white"/>
<path d="M48.8132 68.8329V73.4162C37.1119 73.4162 27.6152 63.1496 27.6152 50.4996C27.6152 37.8496 37.1119 27.5829 48.8132 27.5829C59.0729 27.5829 67.6157 35.4662 69.5871 45.9162H65.1991C64.538 43.1475 63.2869 40.5844 61.546 38.4317C59.805 36.279 57.6224 34.5963 55.1725 33.5183V34.4579C55.1725 36.9787 53.2647 39.0412 50.9329 39.0412H46.6934V43.6246C46.6934 44.885 45.7395 45.9162 44.5736 45.9162H40.334V50.4996H44.5736V57.3746H42.4538L32.3 46.3975C32.0244 47.7266 31.8548 49.0787 31.8548 50.4996C31.8548 60.6058 39.4649 68.8329 48.8132 68.8329Z" fill="#F32735"/>
<path d="M72.875 61.0498C72.875 61.4979 72.7492 61.862 72.4976 62.142C72.2461 62.4221 71.9266 62.6181 71.5393 62.7302L69.3687 63.1502C69.2018 63.6543 68.9925 64.1159 68.7409 64.5348C68.4894 64.9538 68.1978 65.3324 67.8661 65.6707L68.6174 67.9391C68.7287 68.2752 68.7142 68.6258 68.574 68.991C68.4337 69.3562 68.1978 69.6497 67.8661 69.8715L66.1964 70.8797C65.8625 71.1037 65.5007 71.1743 65.1112 71.0914C64.7216 71.0085 64.3876 70.8259 64.1094 70.5436L62.5232 68.6953C62.2449 68.8073 62.0223 68.8633 61.8554 68.8633L60.5196 68.8633C60.3527 68.8633 60.1301 68.8073 59.8518 68.6953L58.2656 70.5436C57.9874 70.8237 57.6534 71.0052 57.2638 71.0881C56.8743 71.171 56.5125 71.1015 56.1786 70.8797L54.5089 69.8715C54.175 69.6475 53.9379 69.3528 53.7977 68.9877C53.6574 68.6225 53.6441 68.273 53.7576 67.9391L54.5089 65.6707C54.175 65.3346 53.8823 64.956 53.6307 64.5348C53.3792 64.1136 53.171 63.6521 53.0063 63.1502L50.8357 62.7302C50.4462 62.6181 50.1256 62.4221 49.874 62.142C49.6225 61.862 49.4978 61.4979 49.5 61.0498L49.5 59.2015C49.5 58.7534 49.6258 58.3893 49.8774 58.1093C50.1289 57.8292 50.4484 57.6332 50.8357 57.5212L53.0063 57.1011C53.1732 56.597 53.3825 56.1344 53.6341 55.7132C53.8856 55.292 54.1772 54.9144 54.5089 54.5806L53.7576 52.3122C53.6463 51.9761 53.6608 51.6255 53.801 51.2603C53.9413 50.8951 54.1772 50.6016 54.5089 50.3798L56.1786 49.3716C56.5125 49.1476 56.8743 49.077 57.2638 49.1599C57.6534 49.2428 57.9874 49.4254 58.2656 49.7077L59.8518 51.556C60.1301 51.444 60.3527 51.388 60.5196 51.388L61.8554 51.388C62.0223 51.388 62.2449 51.444 62.5232 51.556L64.1094 49.7077C64.3876 49.4276 64.7216 49.245 65.1112 49.1599C65.5007 49.0748 65.8625 49.1453 66.1964 49.3716L67.8661 50.3798C68.2 50.6039 68.4371 50.8974 68.5773 51.2603C68.7176 51.6233 68.7309 51.9739 68.6174 52.3122L67.8661 54.5806C68.2 54.9167 68.4927 55.2942 68.7443 55.7132C68.9958 56.1321 69.204 56.5948 69.3687 57.1011L71.5393 57.5212C71.9288 57.6332 72.2494 57.8292 72.501 58.1093C72.7525 58.3893 72.8772 58.7534 72.875 59.2015L72.875 61.0498ZM65.3616 60.1257C65.3616 58.9495 64.9575 57.9547 64.1494 57.1414C63.3413 56.3282 62.354 55.9226 61.1875 55.9249C60.0188 55.9249 59.0303 56.3315 58.2222 57.1448C57.4141 57.9581 57.0112 58.9517 57.0134 60.1257C57.0134 61.3019 57.4175 62.2966 58.2256 63.1099C59.0337 63.9232 60.021 64.3287 61.1875 64.3265C62.3562 64.3265 63.3447 63.9198 64.1528 63.1066C64.9609 62.2933 65.3638 61.2997 65.3616 60.1257Z" fill="#F32735"/>
</svg>
