<svg width="100" height="100" viewBox="0 0 100 100" fill="none" xmlns="http://www.w3.org/2000/svg">
<path d="M49.1322 0.417895C49.6806 0.153812 50.3194 0.153812 50.8678 0.417895L88.2238 18.4076C88.7722 18.6717 89.1705 19.1711 89.3059 19.7645L98.5321 60.187C98.6675 60.7804 98.5254 61.4032 98.1459 61.8791L72.2947 94.2954C71.9152 94.7713 71.3397 95.0484 70.731 95.0484H29.269C28.6603 95.0484 28.0848 94.7713 27.7053 94.2954L1.85412 61.8791C1.47463 61.4032 1.33249 60.7804 1.46793 60.187L10.6941 19.7645C10.8295 19.1711 11.2278 18.6717 11.7762 18.4076L49.1322 0.417895Z" fill="white"/>
<path fill-rule="evenodd" clip-rule="evenodd" d="M41.1874 33.8854C41.1874 33.3835 46.362 29.875 51.4999 29.875C56.6378 29.875 61.8124 33.3847 61.8124 33.8854C61.8124 35.6729 61.6222 36.7317 61.4618 37.308C61.3552 37.6861 61.0011 37.8958 60.6081 37.8958H42.3917C41.9986 37.8958 41.6446 37.6861 41.538 37.308C41.3776 36.7317 41.1874 35.6729 41.1874 33.8854ZM49.7811 33.3125C49.4772 33.3125 49.1858 33.4332 48.9709 33.6481C48.756 33.863 48.6353 34.1544 48.6353 34.4583C48.6353 34.7622 48.756 35.0537 48.9709 35.2686C49.1858 35.4834 49.4772 35.6042 49.7811 35.6042H53.2186C53.5225 35.6042 53.814 35.4834 54.0289 35.2686C54.2437 35.0537 54.3645 34.7622 54.3645 34.4583C54.3645 34.1544 54.2437 33.863 54.0289 33.6481C53.814 33.4332 53.5225 33.3125 53.2186 33.3125H49.7811ZM42.3768 45.0206C38.5611 43.8404 39.5236 41.7321 40.9788 40.1875H62.3395C63.5036 41.6748 64.1281 43.6811 60.6093 44.882C60.7531 46.1585 60.627 47.4509 60.2392 48.6756C59.8515 49.9002 59.2106 51.0296 58.3583 51.9907C57.5059 52.9517 56.4611 53.7229 55.2916 54.2542C54.122 54.7855 52.8539 55.065 51.5694 55.0747C50.2848 55.0844 49.0126 54.824 47.8352 54.3104C46.6578 53.7968 45.6015 53.0415 44.7347 52.0934C43.868 51.1453 43.2102 50.0257 42.804 48.807C42.3978 47.5884 42.2522 46.298 42.3768 45.0195V45.0206ZM51.1882 45.9167C54.2155 45.9167 56.5622 45.7562 58.3611 45.4767C58.4203 46.4109 58.288 47.3473 57.9724 48.2286C57.6569 49.1099 57.1647 49.9175 56.526 50.6018C55.8873 51.2862 55.1155 51.8329 54.2581 52.2084C53.4006 52.584 52.4755 52.7805 51.5395 52.7859C50.6034 52.7913 49.6761 52.6054 48.8144 52.2398C47.9527 51.8741 47.1747 51.3364 46.5281 50.6594C45.8816 49.9825 45.3801 49.1806 45.0544 48.303C44.7287 47.4254 44.5857 46.4906 44.6341 45.5557C46.3104 45.7872 48.4588 45.9167 51.1882 45.9167ZM61.1444 62.6458C60.1079 61.0288 58.6813 59.6986 56.996 58.7775C55.3106 57.8564 53.4205 57.3741 51.4999 57.375C49.5784 57.3738 47.6876 57.8561 46.0015 58.7776C44.3155 59.6992 42.8885 61.0302 41.852 62.6481C41.4673 62.0557 40.8765 61.627 40.194 61.445L37.9802 60.8526C37.2465 60.6559 36.4646 60.7587 35.8066 61.1384C35.1487 61.5181 34.6685 62.1436 34.4717 62.8773L33.5825 66.1979C33.4851 66.5613 33.4603 66.9403 33.5094 67.3133C33.5585 67.6863 33.6806 68.046 33.8687 68.3718C34.0568 68.6976 34.3073 68.9832 34.6058 69.2122C34.9042 69.4412 35.2449 69.6091 35.6083 69.7065L37.8209 70.3C38.1931 70.4003 38.5817 70.4241 38.9634 70.3702C39.345 70.3162 39.7118 70.1855 40.0416 69.986C40.0425 70.2899 40.1641 70.581 40.3796 70.7953C40.5951 71.0095 40.8869 71.1293 41.1908 71.1284C41.4947 71.1275 41.7858 71.0059 42 70.7904C42.2143 70.5749 42.3341 70.2831 42.3332 69.9792V68.8333C42.3332 68.3968 42.3642 67.9671 42.4226 67.5466L48.3855 69.145C48.6623 69.7375 49.1023 70.2387 49.654 70.5898C50.2056 70.941 50.846 71.1275 51.4999 71.1275C52.1538 71.1275 52.7942 70.941 53.3458 70.5898C53.8974 70.2387 54.3375 69.7375 54.6143 69.145L60.5772 67.5466C60.6356 67.9671 60.6666 68.3968 60.6666 68.8333V69.9792C60.665 70.2831 60.7843 70.5751 60.9981 70.7911C61.2119 71.007 61.5028 71.1292 61.8067 71.1307C62.1105 71.1323 62.4026 71.013 62.6186 70.7992C62.8345 70.5854 62.9567 70.2945 62.9582 69.9906C63.5999 70.3756 64.3928 70.5097 65.1731 70.3L67.3869 69.7076C67.7503 69.6103 68.0909 69.4423 68.3894 69.2133C68.6879 68.9843 68.9384 68.6987 69.1265 68.3729C69.3146 68.0471 69.4367 67.6875 69.4858 67.3145C69.5349 66.9415 69.5101 66.5625 69.4127 66.1991L68.5224 62.8784C68.3256 62.1447 67.8454 61.5192 67.1874 61.1395C66.5294 60.7598 65.7476 60.657 65.0138 60.8538L62.8001 61.4461C62.1191 61.6275 61.5293 62.0555 61.1444 62.6458ZM43.0242 65.3351C43.6431 63.8381 44.6473 62.5317 45.9348 61.5486C47.2222 60.5655 48.7469 59.9407 50.3541 59.7377V64.4459C49.8405 64.6281 49.3776 64.9294 49.0031 65.3252C48.6286 65.721 48.3534 66.1999 48.1999 66.7227L43.0242 65.3363V65.3351ZM59.9756 65.3351C59.3566 63.8382 58.3523 62.5318 57.0649 61.5487C55.7775 60.5656 54.2528 59.9408 52.6457 59.7377V64.4459C53.6816 64.8126 54.4905 65.6605 54.7999 66.7227L59.9756 65.3363V65.3351ZM51.4999 68.8333C51.8038 68.8333 52.0952 68.7126 52.3101 68.4977C52.525 68.2828 52.6457 67.9914 52.6457 67.6875C52.6457 67.3836 52.525 67.0922 52.3101 66.8773C52.0952 66.6624 51.8038 66.5417 51.4999 66.5417C51.196 66.5417 50.9045 66.6624 50.6897 66.8773C50.4748 67.0922 50.3541 67.3836 50.3541 67.6875C50.3541 67.9914 50.4748 68.2828 50.6897 68.4977C50.9045 68.7126 51.196 68.8333 51.4999 68.8333Z" fill="#F32735"/>
</svg>
