<svg width="100" height="100" viewBox="0 0 100 100" fill="none" xmlns="http://www.w3.org/2000/svg">
<path d="M49.1322 0.417895C49.6806 0.153812 50.3194 0.153812 50.8678 0.417895L88.2238 18.4076C88.7722 18.6717 89.1705 19.1711 89.3059 19.7645L98.5321 60.187C98.6675 60.7804 98.5254 61.4032 98.1459 61.8791L72.2947 94.2954C71.9152 94.7713 71.3397 95.0484 70.731 95.0484H29.269C28.6603 95.0484 28.0848 94.7713 27.7053 94.2954L1.85412 61.8791C1.47463 61.4032 1.33249 60.7804 1.46793 60.187L10.6941 19.7645C10.8295 19.1711 11.2278 18.6717 11.7762 18.4076L49.1322 0.417895Z" fill="white"/>
<path d="M63.1667 49.7143H60.4333V52.5H63.1667C64.2537 52.5011 65.2959 52.9417 66.0646 53.7251C66.8333 54.5085 67.2656 55.5707 67.2667 56.6786V62.25H70V56.6786C69.9978 54.8322 69.2772 53.0621 67.9962 51.7565C66.7151 50.4509 64.9783 49.7165 63.1667 49.7143ZM60.4333 35.7857C61.2442 35.7857 62.0369 36.0308 62.7112 36.4899C63.3854 36.9491 63.9109 37.6017 64.2212 38.3652C64.5316 39.1287 64.6128 39.9689 64.4546 40.7795C64.2964 41.59 63.9059 42.3346 63.3325 42.919C62.7591 43.5034 62.0285 43.9013 61.2332 44.0626C60.4379 44.2238 59.6135 44.141 58.8643 43.8248C58.1152 43.5085 57.4748 42.9729 57.0243 42.2858C56.5738 41.5986 56.3333 40.7907 56.3333 39.9643C56.3333 38.8561 56.7653 37.7932 57.5342 37.0096C58.3031 36.226 59.3459 35.7857 60.4333 35.7857ZM60.4333 33C59.0818 33 57.7607 33.4084 56.6369 34.1737C55.5132 34.9389 54.6374 36.0266 54.1202 37.2992C53.603 38.5717 53.4676 39.972 53.7313 41.323C53.995 42.6739 54.6458 43.9148 55.6014 44.8888C56.5571 45.8628 57.7747 46.526 59.1002 46.7948C60.4258 47.0635 61.7997 46.9256 63.0483 46.3984C64.297 45.8713 65.3642 44.9787 66.115 43.8334C66.8659 42.6882 67.2667 41.3417 67.2667 39.9643C67.2667 38.1172 66.5467 36.3458 65.2652 35.0398C63.9837 33.7337 62.2456 33 60.4333 33ZM59.0667 72H56.3333V69.2143C56.3322 68.1064 55.8999 67.0442 55.1313 66.2608C54.3626 65.4774 53.3204 65.0368 52.2333 65.0357H46.7667C45.6796 65.0368 44.6374 65.4774 43.8687 66.2608C43.1001 67.0442 42.6678 68.1064 42.6667 69.2143V72H39.9333V69.2143C39.9355 67.3679 40.6561 65.5978 41.9372 64.2922C43.2182 62.9867 44.955 62.2522 46.7667 62.25H52.2333C54.045 62.2522 55.7818 62.9867 57.0628 64.2922C58.3439 65.5978 59.0645 67.3679 59.0667 69.2143V72ZM49.5 48.3214C50.3109 48.3214 51.1036 48.5665 51.7778 49.0256C52.4521 49.4848 52.9776 50.1374 53.2879 50.9009C53.5982 51.6645 53.6794 52.5046 53.5212 53.3152C53.363 54.1258 52.9725 54.8703 52.3991 55.4547C51.8257 56.0391 51.0952 56.4371 50.2999 56.5983C49.5045 56.7595 48.6802 56.6768 47.931 56.3605C47.1818 56.0442 46.5415 55.5087 46.091 54.8215C45.6405 54.1343 45.4 53.3264 45.4 52.5C45.4 51.3918 45.832 50.3289 46.6009 49.5453C47.3698 48.7617 48.4126 48.3214 49.5 48.3214ZM49.5 45.5357C48.1485 45.5357 46.8273 45.9442 45.7036 46.7094C44.5799 47.4747 43.704 48.5623 43.1868 49.8349C42.6696 51.1074 42.5343 52.5077 42.798 53.8587C43.0616 55.2096 43.7124 56.4505 44.6681 57.4245C45.6238 58.3985 46.8413 59.0618 48.1669 59.3305C49.4924 59.5992 50.8664 59.4613 52.115 58.9342C53.3636 58.4071 54.4309 57.5144 55.1817 56.3692C55.9326 55.2239 56.3333 53.8774 56.3333 52.5C56.3333 50.653 55.6134 48.8816 54.3319 47.5755C53.0504 46.2695 51.3123 45.5357 49.5 45.5357ZM38.5667 49.7143H35.8333C34.0217 49.7165 32.2849 50.4509 31.0038 51.7565C29.7228 53.0621 29.0022 54.8322 29 56.6786V62.25H31.7333V56.6786C31.7344 55.5707 32.1667 54.5085 32.9354 53.7251C33.7041 52.9417 34.7463 52.5011 35.8333 52.5H38.5667V49.7143ZM38.5667 35.7857C39.3776 35.7857 40.1703 36.0308 40.8445 36.4899C41.5187 36.9491 42.0443 37.6017 42.3546 38.3652C42.6649 39.1287 42.7461 39.9689 42.5879 40.7795C42.4297 41.59 42.0392 42.3346 41.4658 42.919C40.8924 43.5034 40.1619 43.9013 39.3665 44.0626C38.5712 44.2238 37.7468 44.141 36.9977 43.8248C36.2485 43.5085 35.6082 42.9729 35.1576 42.2858C34.7071 41.5986 34.4667 40.7907 34.4667 39.9643C34.4667 38.8561 34.8986 37.7932 35.6675 37.0096C36.4364 36.226 37.4793 35.7857 38.5667 35.7857ZM38.5667 33C37.2152 33 35.894 33.4084 34.7703 34.1737C33.6465 34.9389 32.7707 36.0266 32.2535 37.2992C31.7363 38.5717 31.601 39.972 31.8646 41.323C32.1283 42.6739 32.7791 43.9148 33.7348 44.8888C34.6904 45.8628 35.908 46.526 37.2336 46.7948C38.5591 47.0635 39.933 46.9256 41.1817 46.3984C42.4303 45.8713 43.4975 44.9787 44.2484 43.8334C44.9992 42.6882 45.4 41.3417 45.4 39.9643C45.4 38.1172 44.6801 36.3458 43.3986 35.0398C42.1171 33.7337 40.379 33 38.5667 33Z" fill="#F32735"/>
</svg>
