<svg width="22" height="22" viewBox="0 0 22 22" fill="none" xmlns="http://www.w3.org/2000/svg">
<path d="M10.9997 20.1667C9.73162 20.1667 8.53995 19.9259 7.42467 19.4443C6.3094 18.9628 5.33926 18.3098 4.51426 17.4854C3.68926 16.6604 3.03629 15.6903 2.55534 14.575C2.0744 13.4597 1.83362 12.2681 1.83301 11C1.83301 9.73194 2.07379 8.54027 2.55534 7.42499C3.0369 6.30972 3.68987 5.33958 4.51426 4.51458C5.33926 3.68958 6.3094 3.03661 7.42467 2.55566C8.53995 2.07472 9.73162 1.83394 10.9997 1.83333C12.2677 1.83333 13.4594 2.07411 14.5747 2.55566C15.69 3.03722 16.6601 3.69019 17.4851 4.51458C18.3101 5.33958 18.9634 6.30972 19.4449 7.42499C19.9265 8.54027 20.167 9.73194 20.1663 11C20.1663 12.2681 19.9256 13.4597 19.444 14.575C18.9625 15.6903 18.3095 16.6604 17.4851 17.4854C16.6601 18.3104 15.69 18.9637 14.5747 19.4452C13.4594 19.9268 12.2677 20.1673 10.9997 20.1667Z" fill="black"/>
<path d="M17.6508 13.125C17.7 13.2105 17.732 13.3049 17.7447 13.4028C17.7575 13.5006 17.7509 13.6 17.7252 13.6953C17.6996 13.7906 17.6554 13.8799 17.5952 13.9582C17.5351 14.0364 17.4601 14.102 17.3745 14.1512C17.289 14.2005 17.1946 14.2324 17.0968 14.2452C16.9989 14.2579 16.8995 14.2513 16.8042 14.2257C16.7089 14.2 16.6196 14.1558 16.5414 14.0957C16.4632 14.0355 16.3975 13.9605 16.3483 13.875L15.2945 12.0312C14.7066 12.4011 14.0726 12.6924 13.4089 12.8975L13.7395 14.875C13.7721 15.0712 13.7254 15.2722 13.6097 15.434C13.494 15.5957 13.3188 15.7049 13.1227 15.7375C13.0814 15.7448 13.0396 15.7483 12.9977 15.7481C12.8206 15.7479 12.6492 15.6851 12.514 15.5707C12.3788 15.4563 12.2884 15.2978 12.2589 15.1231L11.937 13.1981C11.3127 13.2673 10.6826 13.2673 10.0583 13.1981L9.73955 15.125C9.70999 15.2998 9.61944 15.4586 9.48397 15.573C9.3485 15.6874 9.17687 15.7501 8.99955 15.75C8.95765 15.7502 8.91581 15.7466 8.87455 15.7394C8.7774 15.723 8.68443 15.6877 8.60095 15.6354C8.51746 15.5831 8.4451 15.5149 8.38799 15.4346C8.33088 15.3543 8.29014 15.2636 8.2681 15.1676C8.24606 15.0716 8.24316 14.9721 8.25955 14.875L8.59017 12.8925C7.92648 12.6874 7.29254 12.3961 6.70455 12.0262L5.6508 13.875C5.60155 13.9605 5.53594 14.0355 5.45772 14.0957C5.37949 14.1558 5.29018 14.2 5.19488 14.2257C5.09959 14.2513 5.00017 14.2579 4.90231 14.2452C4.80446 14.2324 4.71007 14.2005 4.62455 14.1512C4.53902 14.102 4.46404 14.0364 4.40387 13.9582C4.3437 13.8799 4.29953 13.7906 4.27388 13.6953C4.24823 13.6 4.24159 13.5006 4.25436 13.4028C4.26713 13.3049 4.29905 13.2105 4.3483 13.125L5.49955 11.1156C5.10935 10.7632 4.7476 10.3806 4.41767 9.97125C4.3012 9.8159 4.24951 9.62144 4.27347 9.42876C4.29744 9.23609 4.39519 9.06021 4.54617 8.93813C4.69715 8.81605 4.88959 8.75728 5.08302 8.77418C5.27644 8.79108 5.45577 8.88233 5.5833 9.02875C6.5858 10.27 8.33955 11.75 10.9995 11.75C13.6595 11.75 15.4133 10.27 16.4158 9.02875C16.5413 8.87549 16.7222 8.77807 16.9193 8.75777C17.1163 8.73746 17.3133 8.79592 17.4674 8.92037C17.6215 9.04482 17.7201 9.22516 17.7417 9.42205C17.7633 9.61893 17.7061 9.81636 17.5827 9.97125C17.2523 10.3806 16.8902 10.7633 16.4995 11.1156L17.6508 13.125Z" fill="white"/>
</svg>
