<svg width="22" height="22" viewBox="0 0 22 22" fill="none" xmlns="http://www.w3.org/2000/svg">
<path d="M10.9997 20.1667C9.73162 20.1667 8.53995 19.9259 7.42467 19.4443C6.3094 18.9628 5.33926 18.3098 4.51426 17.4854C3.68926 16.6604 3.03629 15.6903 2.55534 14.575C2.0744 13.4597 1.83362 12.2681 1.83301 11C1.83301 9.73195 2.07379 8.54028 2.55534 7.425C3.0369 6.30972 3.68987 5.33959 4.51426 4.51459C5.33926 3.68959 6.3094 3.03661 7.42467 2.55567C8.53995 2.07472 9.73162 1.83395 10.9997 1.83334C12.2677 1.83334 13.4594 2.07411 14.5747 2.55567C15.69 3.03722 16.6601 3.6902 17.4851 4.51459C18.3101 5.33959 18.9634 6.30972 19.4449 7.425C19.9265 8.54028 20.167 9.73195 20.1663 11C20.1663 12.2681 19.9256 13.4597 19.444 14.575C18.9625 15.6903 18.3095 16.6604 17.4851 17.4854C16.6601 18.3104 15.69 18.9637 14.5747 19.4453C13.4594 19.9268 12.2677 20.1673 10.9997 20.1667Z" fill="black"/>
<path d="M11.0005 6.41666C7.94499 6.41666 5.33554 8.31722 4.27832 11C5.33554 13.6828 7.94499 15.5833 11.0005 15.5833C14.0561 15.5833 16.6655 13.6828 17.7228 11C16.6655 8.31722 14.0561 6.41666 11.0005 6.41666ZM11.0005 14.0556C9.31388 14.0556 7.94499 12.6867 7.94499 11C7.94499 9.31333 9.31388 7.94444 11.0005 7.94444C12.6872 7.94444 14.0561 9.31333 14.0561 11C14.0561 12.6867 12.6872 14.0556 11.0005 14.0556ZM11.0005 9.16666C9.9861 9.16666 9.16721 9.98555 9.16721 11C9.16721 12.0144 9.9861 12.8333 11.0005 12.8333C12.015 12.8333 12.8339 12.0144 12.8339 11C12.8339 9.98555 12.015 9.16666 11.0005 9.16666Z" fill="white"/>
</svg>
