<svg width="226" height="56" viewBox="0 0 226 56" fill="none" xmlns="http://www.w3.org/2000/svg">
<g clip-path="url(#clip0_203_378)">
<path d="M0.252808 44.9946H18.3146V22.4271H36.3764V44.9946H54.509V22.4271H67.6635C67.6635 22.4271 72.4267 22.5675 72.4267 24.8243V44.9946H90.4885V23.9767C90.4885 23.9767 91.4138 14.8093 68.3739 14.8093H0.252808V44.9921V44.9946Z" fill="#253883"/>
<path d="M90.4935 14.8093H153.558V22.4271H130.948V44.9946H113.028V22.2842H90.4935V14.8093Z" fill="#253883"/>
<path d="M221.181 14.8093V22.4246H176.881C176.881 22.4246 171.62 22.565 171.62 24.6111C171.62 26.6573 176.81 26.9381 176.81 26.9381H205.893C205.893 26.9381 225.745 27.4321 225.745 36.0353C225.745 44.6385 206.388 44.9921 206.388 44.9921H158.036V37.5172H203.332C203.332 37.5172 207.883 37.3066 207.883 35.3307C207.883 33.3548 203.119 33.074 203.119 33.074H171.051C171.051 33.074 153.558 31.8754 153.558 23.8363C153.558 15.7973 171.832 14.8093 171.832 14.8093H221.181Z" fill="#253883"/>
<path d="M1.96191 50.2803H7.29146L6.91475 51.6694H5.12728L3.97693 55.9096H2.22232L3.37268 51.6694H1.58521L1.96191 50.2803Z" fill="white"/>
<path d="M7.83751 51.83H9.31148L9.12944 52.4995C9.3494 52.2112 9.54913 52.0106 9.73117 51.9027C9.91067 51.7949 10.1129 51.7397 10.3354 51.7397C10.5579 51.7397 10.8031 51.8125 11.0408 51.9554L10.252 53.0687C10.0876 52.991 9.95112 52.9534 9.84241 52.9534C9.63509 52.9534 9.45306 53.0386 9.29378 53.2066C9.06624 53.4448 8.86398 53.8912 8.687 54.5431L8.31535 55.9097H6.73267L7.84004 51.8325L7.83751 51.83Z" fill="white"/>
<path d="M13.1569 53.1515L11.6931 52.9935C11.8195 52.7327 11.9586 52.5271 12.1052 52.3767C12.2518 52.2262 12.4415 52.0958 12.6741 51.988C12.8409 51.9077 13.0558 51.8476 13.3213 51.8049C13.5867 51.7623 13.8649 51.7397 14.1607 51.7397C14.6334 51.7397 15.0051 51.7673 15.2781 51.8175C15.5512 51.8701 15.7585 51.9805 15.9051 52.146C16.0088 52.2613 16.0695 52.4243 16.0897 52.6349C16.1099 52.8456 16.0948 53.0487 16.0417 53.2392L15.5537 55.0396C15.5006 55.2327 15.4728 55.3831 15.4678 55.491C15.4627 55.5988 15.4779 55.7392 15.5158 55.9072H14.0368C14.0064 55.8019 13.9887 55.7217 13.9862 55.6665C13.9837 55.6113 13.9862 55.5261 14.0014 55.4082C13.741 55.6063 13.4983 55.7467 13.2707 55.8295C12.9623 55.9423 12.621 55.9975 12.2518 55.9975C11.7614 55.9975 11.42 55.8846 11.2279 55.659C11.0357 55.4333 10.9827 55.155 11.0737 54.8265C11.1571 54.5181 11.3189 54.2623 11.5566 54.0617C11.7942 53.8611 12.1735 53.7132 12.6917 53.6154C13.3137 53.4975 13.7207 53.4148 13.9078 53.3671C14.0975 53.3195 14.2997 53.2568 14.5171 53.1816C14.5702 52.9885 14.5652 52.8556 14.507 52.7779C14.4489 52.7001 14.3174 52.6625 14.1152 52.6625C13.8573 52.6625 13.6525 52.7026 13.5008 52.7854C13.382 52.8481 13.2682 52.9684 13.1595 53.1465L13.1569 53.1515ZM14.2997 53.9739C14.0621 54.0517 13.8168 54.1194 13.5665 54.177C13.2227 54.2623 12.9977 54.345 12.8915 54.4278C12.7853 54.5105 12.712 54.6083 12.6816 54.7162C12.6488 54.839 12.6639 54.9393 12.7297 55.0171C12.7954 55.0948 12.9117 55.1349 13.0786 55.1349C13.2454 55.1349 13.43 55.0923 13.6019 55.0095C13.7764 54.9243 13.9104 54.8215 14.0064 54.7011C14.1025 54.5782 14.1784 54.4203 14.2289 54.2272L14.2972 53.9789L14.2997 53.9739Z" fill="white"/>
<path d="M16.8938 54.7763L18.4967 54.6309C18.5119 54.8164 18.565 54.9468 18.661 55.0271C18.7546 55.1073 18.8987 55.1474 19.0934 55.1474C19.3057 55.1474 19.4802 55.1023 19.6218 55.012C19.7305 54.9468 19.7988 54.8616 19.824 54.7638C19.8544 54.651 19.819 54.5657 19.7179 54.503C19.6445 54.4604 19.4322 54.4052 19.0833 54.3425C18.5624 54.2472 18.206 54.1595 18.0138 54.0792C17.8217 53.999 17.6801 53.8636 17.5865 53.6705C17.493 53.48 17.4804 53.2593 17.5461 53.0136C17.6194 52.7453 17.761 52.5146 17.9708 52.319C18.1807 52.1259 18.436 51.9805 18.7394 51.8827C19.0403 51.7874 19.4246 51.7397 19.8898 51.7397C20.3803 51.7397 20.7317 51.7774 20.9466 51.8501C21.159 51.9253 21.3233 52.0406 21.4371 52.1961C21.5508 52.3516 21.6241 52.5622 21.6545 52.8305L20.1198 52.9759C20.1173 52.8456 20.0769 52.7503 20.0035 52.6876C19.9024 52.6048 19.7634 52.5647 19.5889 52.5647C19.4145 52.5647 19.2729 52.5948 19.1743 52.66C19.0757 52.7227 19.015 52.7979 18.9897 52.8882C18.9619 52.9885 18.9948 53.0637 19.0833 53.1139C19.1718 53.164 19.3841 53.2116 19.7204 53.2518C20.2286 53.3094 20.5952 53.3922 20.8227 53.4975C21.0502 53.6028 21.2045 53.7508 21.2879 53.9463C21.3713 54.1419 21.3814 54.3551 21.3182 54.5858C21.255 54.8215 21.121 55.0496 20.9162 55.2728C20.7115 55.496 20.4384 55.6715 20.0946 55.8044C19.7507 55.9373 19.3133 56.0025 18.7799 56.0025C18.029 56.0025 17.5233 55.8972 17.2629 55.684C17.0025 55.4709 16.8786 55.17 16.8963 54.7788L16.8938 54.7763Z" fill="white"/>
<path d="M23.8919 50.2803H25.4721L23.945 55.9096H22.3649L23.8919 50.2803Z" fill="white"/>
<path d="M27.7348 53.1515L26.271 52.9935C26.3974 52.7327 26.5364 52.5271 26.6831 52.3767C26.8297 52.2262 27.0193 52.0958 27.2519 51.988C27.4188 51.9077 27.6337 51.8476 27.8992 51.8049C28.1646 51.7623 28.4427 51.7397 28.7385 51.7397C29.2113 51.7397 29.583 51.7673 29.856 51.8175C30.1291 51.8701 30.3364 51.9805 30.483 52.146C30.5867 52.2613 30.6474 52.4243 30.6676 52.6349C30.6878 52.8456 30.6726 53.0487 30.6196 53.2392L30.1316 55.0396C30.0785 55.2327 30.0507 55.3831 30.0456 55.491C30.0406 55.5988 30.0558 55.7392 30.0937 55.9072H28.6147C28.5843 55.8019 28.5666 55.7217 28.5641 55.6665C28.5616 55.6113 28.5641 55.5261 28.5793 55.4082C28.3189 55.6063 28.0761 55.7467 27.8486 55.8295C27.5402 55.9423 27.1988 55.9975 26.8297 55.9975C26.3392 55.9975 25.9979 55.8846 25.8058 55.659C25.6136 55.4333 25.5605 55.155 25.6516 54.8265C25.735 54.5181 25.8968 54.2623 26.1344 54.0617C26.3721 53.8611 26.7513 53.7132 27.2696 53.6154C27.8916 53.4975 28.2986 53.4148 28.4857 53.3671C28.6753 53.3195 28.8776 53.2568 29.095 53.1816C29.1481 52.9885 29.1431 52.8556 29.0849 52.7779C29.0268 52.7001 28.8953 52.6625 28.693 52.6625C28.4352 52.6625 28.2304 52.7026 28.0787 52.7854C27.9598 52.8481 27.8461 52.9684 27.7374 53.1465L27.7348 53.1515ZM28.8776 53.9739C28.6399 54.0517 28.3947 54.1194 28.1444 54.177C27.8006 54.2623 27.5755 54.345 27.4694 54.4278C27.3632 54.5105 27.2899 54.6083 27.2595 54.7162C27.2266 54.839 27.2418 54.9393 27.3076 55.0171C27.3733 55.0948 27.4896 55.1349 27.6565 55.1349C27.8233 55.1349 28.0079 55.0923 28.1798 55.0095C28.3542 54.9243 28.4882 54.8215 28.5843 54.7011C28.6804 54.5782 28.7562 54.4203 28.8068 54.2272L28.8751 53.9789L28.8776 53.9739Z" fill="white"/>
<path d="M37.2967 50.2803L35.7696 55.9096H34.2957L34.46 55.3078C34.1844 55.5636 33.9493 55.7366 33.7546 55.8269C33.4942 55.9447 33.2262 56.0024 32.9481 56.0024C32.3869 56.0024 32.0177 55.7918 31.8357 55.368C31.6537 54.9467 31.6461 54.4327 31.8104 53.8284C31.995 53.1514 32.2984 52.6348 32.7206 52.2762C33.1453 51.9177 33.608 51.7396 34.1111 51.7396C34.3564 51.7396 34.5687 51.7798 34.7457 51.8625C34.9227 51.9453 35.0668 52.0681 35.178 52.2311L35.7064 50.2803H37.2967ZM34.7457 53.8585C34.8317 53.5375 34.8291 53.2993 34.7356 53.1438C34.642 52.9884 34.4904 52.9081 34.2805 52.9081C34.0959 52.9081 33.924 52.9834 33.7572 53.1338C33.5928 53.2843 33.4614 53.5375 33.3653 53.8936C33.2743 54.2271 33.2717 54.4703 33.3577 54.6258C33.4437 54.7812 33.5802 54.859 33.7698 54.859C33.9721 54.859 34.1592 54.7812 34.3361 54.6258C34.5131 54.4703 34.6496 54.2145 34.7457 53.861V53.8585Z" fill="white"/>
<path d="M37.6886 53.8812C37.8579 53.2593 38.2068 52.7478 38.7403 52.3441C39.2738 51.9403 39.8982 51.7397 40.6188 51.7397C41.443 51.7397 41.9992 51.9755 42.2925 52.4494C42.5276 52.8305 42.5681 53.3019 42.4164 53.8586C42.247 54.4855 41.8981 54.9995 41.3697 55.4007C40.8413 55.8019 40.2067 56.0025 39.4659 56.0025C38.806 56.0025 38.3156 55.837 37.9995 55.5035C37.6102 55.0923 37.5065 54.5507 37.6886 53.8837V53.8812ZM39.2687 53.8786C39.1701 54.2422 39.1701 54.5105 39.2712 54.6836C39.3724 54.8566 39.5342 54.9443 39.7592 54.9443C39.9842 54.9443 40.1966 54.8591 40.3887 54.6861C40.5809 54.513 40.7275 54.2397 40.8312 53.8611C40.9272 53.5075 40.9247 53.2442 40.8236 53.0712C40.7224 52.8982 40.5657 52.813 40.3483 52.813C40.1182 52.813 39.9058 52.9007 39.7086 53.0762C39.5114 53.2518 39.3648 53.5176 39.2662 53.8761L39.2687 53.8786Z" fill="white"/>
<path d="M50.3147 54.9793H48.3224L47.794 55.9096H46.004L49.6649 50.2803H51.5788L52.1831 55.9096H50.3476L50.3147 54.9793ZM50.2818 53.7632L50.2034 51.7396L49.0354 53.7632H50.2818Z" fill="white"/>
<path d="M57.4948 55.9071H56.0234L56.2029 55.2476C55.9096 55.5184 55.6366 55.7115 55.3812 55.8269C55.1259 55.9422 54.8376 55.9999 54.5115 55.9999C54.0792 55.9999 53.7733 55.872 53.5963 55.6137C53.4193 55.3554 53.4041 54.9593 53.5482 54.4252L54.2536 51.8299H55.8363L55.227 54.0716C55.1587 54.3274 55.1562 54.5104 55.2219 54.6157C55.2877 54.7236 55.4065 54.7762 55.5809 54.7762C55.7706 54.7762 55.9425 54.7035 56.1018 54.5606C56.261 54.4176 56.39 54.1594 56.4911 53.7883L57.0246 51.8274H58.5997L57.4923 55.9046L57.4948 55.9071Z" fill="white"/>
<path d="M62.4806 50.2803L62.0584 51.8325H62.9255L62.6146 52.9759H61.7474L61.3555 54.4202C61.3075 54.5932 61.2948 54.7086 61.3125 54.7663C61.3403 54.854 61.4187 54.8966 61.5476 54.8966C61.6639 54.8966 61.8359 54.8641 62.0634 54.7963L61.8864 55.8746C61.4743 55.9598 61.0976 55.9999 60.7614 55.9999C60.3695 55.9999 60.0939 55.9498 59.9346 55.8495C59.7753 55.7492 59.6793 55.5987 59.6464 55.3956C59.6135 55.1925 59.6565 54.864 59.7804 54.4077L60.1698 52.9734H59.5883L59.8992 51.83H60.4807L60.683 51.0802L62.4806 50.2778V50.2803Z" fill="white"/>
<path d="M63.5297 53.8812C63.6991 53.2593 64.048 52.7478 64.5815 52.3441C65.115 51.9403 65.7394 51.7397 66.46 51.7397C67.2842 51.7397 67.8404 51.9755 68.1337 52.4494C68.3688 52.8305 68.4093 53.3019 68.2576 53.8586C68.0882 54.4855 67.7393 54.9995 67.2109 55.4007C66.6825 55.8019 66.0479 56.0025 65.3071 56.0025C64.6472 56.0025 64.1567 55.837 63.8407 55.5035C63.4514 55.0923 63.3477 54.5507 63.5297 53.8837V53.8812ZM65.1099 53.8786C65.0113 54.2422 65.0113 54.5105 65.1124 54.6836C65.2136 54.8566 65.3754 54.9443 65.6004 54.9443C65.8254 54.9443 66.0378 54.8591 66.2299 54.6861C66.4221 54.513 66.5687 54.2397 66.6723 53.8611C66.7684 53.5075 66.7659 53.2442 66.6648 53.0712C66.5636 52.8982 66.4069 52.813 66.1895 52.813C65.9594 52.813 65.747 52.9007 65.5498 53.0762C65.3526 53.2518 65.206 53.5176 65.1074 53.8761L65.1099 53.8786Z" fill="white"/>
<path d="M70.1816 51.8301H71.653L71.4912 52.4244C71.7693 52.1761 72.0322 51.9981 72.2775 51.8953C72.5227 51.7925 72.7958 51.7373 73.1017 51.7373C73.4304 51.7373 73.6731 51.795 73.8349 51.9103C73.9942 52.0257 74.1054 52.1962 74.1635 52.4244C74.4821 52.1586 74.7577 51.978 74.9878 51.8802C75.2178 51.7849 75.4808 51.7373 75.7816 51.7373C76.2215 51.7373 76.53 51.8677 76.707 52.126C76.8839 52.3867 76.8966 52.793 76.7474 53.3446L76.0521 55.9048H74.472L75.1015 53.5828C75.1521 53.3973 75.1521 53.2619 75.104 53.1716C75.0358 53.0312 74.9245 52.961 74.7678 52.961C74.5832 52.961 74.4164 53.0287 74.2672 53.1616C74.118 53.2945 74.0043 53.5076 73.9234 53.8035L73.352 55.9073H71.7718L72.3811 53.6606C72.4292 53.4825 72.4519 53.3597 72.4494 53.297C72.4443 53.1942 72.4089 53.1114 72.3407 53.0487C72.2749 52.986 72.1864 52.9534 72.0752 52.9534C71.8932 52.9534 71.7263 53.0211 71.5721 53.1566C71.4179 53.292 71.299 53.5151 71.2156 53.8261L70.6518 55.9073H69.0717L70.179 51.8301H70.1816Z" fill="white"/>
<path d="M77.9509 53.8812C78.1203 53.2593 78.4692 52.7478 79.0026 52.3441C79.5361 51.9403 80.1606 51.7397 80.8811 51.7397C81.7053 51.7397 82.2615 51.9755 82.5548 52.4494C82.7899 52.8305 82.8304 53.3019 82.6787 53.8586C82.5093 54.4855 82.1604 54.9995 81.632 55.4007C81.1036 55.8019 80.469 56.0025 79.7282 56.0025C79.0684 56.0025 78.5779 55.837 78.2619 55.5035C77.8725 55.0923 77.7688 54.5507 77.9509 53.8837V53.8812ZM79.531 53.8786C79.4324 54.2422 79.4324 54.5105 79.5336 54.6836C79.6347 54.8566 79.7965 54.9443 80.0215 54.9443C80.2465 54.9443 80.4589 54.8591 80.651 54.6861C80.8432 54.513 80.9898 54.2397 81.0935 53.8611C81.1896 53.5075 81.187 53.2442 81.0859 53.0712C80.9848 52.8982 80.828 52.813 80.6106 52.813C80.3805 52.813 80.1682 52.9007 79.9709 53.0762C79.7737 53.2518 79.6271 53.5176 79.5285 53.8761L79.531 53.8786Z" fill="white"/>
<path d="M86.9136 50.2803L86.4913 51.8325H87.3585L87.0476 52.9759H86.1804L85.7885 54.4202C85.7405 54.5932 85.7278 54.7086 85.7455 54.7663C85.7733 54.854 85.8517 54.8966 85.9806 54.8966C86.0969 54.8966 86.2689 54.8641 86.4964 54.7963L86.3194 55.8746C85.9073 55.9598 85.5306 55.9999 85.1944 55.9999C84.8025 55.9999 84.5269 55.9498 84.3676 55.8495C84.2083 55.7492 84.1123 55.5987 84.0794 55.3956C84.0465 55.1925 84.0895 54.864 84.2134 54.4077L84.6027 52.9734H84.0212L84.3322 51.83H84.9137L85.116 51.0802L86.9136 50.2778V50.2803Z" fill="white"/>
<path d="M88.7289 51.83H90.2028L90.0208 52.4995C90.2408 52.2112 90.4405 52.0106 90.6225 51.9027C90.802 51.7949 91.0043 51.7397 91.2268 51.7397C91.4493 51.7397 91.6945 51.8125 91.9322 51.9554L91.1433 53.0687C90.979 52.991 90.8425 52.9534 90.7338 52.9534C90.5265 52.9534 90.3444 53.0386 90.1851 53.2066C89.9576 53.4448 89.7553 53.8912 89.5784 54.5431L89.2067 55.9097H87.624L88.7314 51.8325L88.7289 51.83Z" fill="white"/>
<path d="M92.8929 51.83H94.468L93.3606 55.9072H91.7855L92.8929 51.83ZM93.3151 50.2778H94.8902L94.602 51.341H93.0269L93.3151 50.2778Z" fill="white"/>
<path d="M95.8989 51.8301H99.7115L99.4637 52.7428L96.8192 54.8391H99.0213L98.7305 55.9073H94.6348L94.9103 54.8942L97.4234 52.8983H95.6081L95.8989 51.8301Z" fill="white"/>
<path d="M104.872 50.2803H106.51L107.802 53.3946L108.646 50.2803H110.3L108.773 55.9096H107.119L105.832 52.8179L104.993 55.9096H103.345L104.872 50.2803Z" fill="white"/>
<path d="M112.621 53.1515L111.157 52.9935C111.283 52.7327 111.422 52.5271 111.569 52.3767C111.716 52.2262 111.905 52.0958 112.138 51.988C112.305 51.9077 112.52 51.8476 112.785 51.8049C113.051 51.7623 113.329 51.7397 113.625 51.7397C114.097 51.7397 114.469 51.7673 114.742 51.8175C115.015 51.8701 115.222 51.9805 115.369 52.146C115.473 52.2613 115.533 52.4243 115.554 52.6349C115.574 52.8456 115.559 53.0487 115.506 53.2392L115.018 55.0396C114.964 55.2327 114.937 55.3831 114.932 55.491C114.927 55.5988 114.942 55.7392 114.98 55.9072H113.501C113.47 55.8019 113.453 55.7217 113.45 55.6665C113.448 55.6113 113.45 55.5261 113.465 55.4082C113.205 55.6063 112.962 55.7467 112.735 55.8295C112.426 55.9423 112.085 55.9975 111.716 55.9975C111.225 55.9975 110.884 55.8846 110.692 55.659C110.5 55.4333 110.447 55.155 110.538 54.8265C110.621 54.5181 110.783 54.2623 111.02 54.0617C111.258 53.8611 111.637 53.7132 112.156 53.6154C112.778 53.4975 113.185 53.4148 113.372 53.3671C113.561 53.3195 113.764 53.2568 113.981 53.1816C114.034 52.9885 114.029 52.8556 113.971 52.7779C113.913 52.7001 113.781 52.6625 113.579 52.6625C113.321 52.6625 113.116 52.7026 112.965 52.7854C112.846 52.8481 112.732 52.9684 112.623 53.1465L112.621 53.1515ZM113.764 53.9739C113.526 54.0517 113.281 54.1194 113.03 54.177C112.687 54.2623 112.462 54.345 112.355 54.4278C112.244 54.513 112.176 54.6083 112.146 54.7162C112.113 54.839 112.128 54.9393 112.194 55.0171C112.259 55.0948 112.376 55.1349 112.542 55.1349C112.709 55.1349 112.891 55.0923 113.066 55.0095C113.24 54.9243 113.374 54.8215 113.47 54.7011C113.566 54.5782 113.642 54.4203 113.693 54.2272L113.761 53.9789L113.764 53.9739Z" fill="white"/>
<path d="M119.826 54.31L121.278 54.478C121.111 54.7889 120.903 55.0547 120.653 55.2829C120.403 55.5086 120.115 55.6866 119.788 55.812C119.462 55.9374 119.073 56.0001 118.62 56.0001C118.168 56.0001 117.832 55.9599 117.564 55.8797C117.296 55.7995 117.081 55.6691 116.921 55.4885C116.762 55.308 116.653 55.0974 116.603 54.8541C116.55 54.6109 116.578 54.2899 116.686 53.8862C116.8 53.4675 116.967 53.1189 117.187 52.8381C117.349 52.6325 117.543 52.4494 117.768 52.289C117.996 52.126 118.218 52.0056 118.433 51.9254C118.775 51.8 119.184 51.7373 119.664 51.7373C120.334 51.7373 120.815 51.8552 121.103 52.0934C121.391 52.3316 121.543 52.6801 121.561 53.1365L120.026 53.3321C120.026 53.1591 119.978 53.0262 119.879 52.9384C119.781 52.8506 119.629 52.8055 119.422 52.8055C119.161 52.8055 118.926 52.8983 118.714 53.0838C118.502 53.2694 118.345 53.5502 118.244 53.9264C118.153 54.2598 118.163 54.5156 118.276 54.6886C118.39 54.8617 118.57 54.9494 118.818 54.9494C119.025 54.9494 119.212 54.8968 119.381 54.7914C119.551 54.6861 119.7 54.5256 119.829 54.3075L119.826 54.31Z" fill="white"/>
<path d="M123.381 51.83H124.956L123.849 55.9072H122.274L123.381 51.83ZM123.803 50.2778H125.378L125.09 51.341H123.515L123.803 50.2778Z" fill="white"/>
<path d="M125.816 53.8812C125.985 53.2593 126.334 52.7478 126.867 52.3441C127.401 51.9403 128.025 51.7397 128.746 51.7397C129.57 51.7397 130.126 51.9755 130.42 52.4494C130.655 52.8305 130.695 53.3019 130.543 53.8586C130.374 54.4855 130.025 54.9995 129.497 55.4007C128.968 55.8019 128.334 56.0025 127.593 56.0025C126.933 56.0025 126.443 55.837 126.127 55.5035C125.737 55.0923 125.634 54.5507 125.816 53.8837V53.8812ZM127.396 53.8786C127.297 54.2422 127.297 54.5105 127.398 54.6836C127.499 54.8566 127.661 54.9443 127.886 54.9443C128.111 54.9443 128.324 54.8591 128.516 54.6861C128.708 54.513 128.855 54.2397 128.958 53.8611C129.054 53.5075 129.052 53.2442 128.951 53.0712C128.85 52.8982 128.693 52.813 128.475 52.813C128.245 52.813 128.033 52.9007 127.836 53.0762C127.638 53.2518 127.492 53.5176 127.393 53.8761L127.396 53.8786Z" fill="white"/>
<path d="M132.457 51.8301H133.924L133.744 52.4946C134.038 52.2238 134.313 52.0282 134.569 51.9128C134.824 51.7975 135.115 51.7373 135.436 51.7373C135.871 51.7373 136.179 51.8652 136.356 52.1235C136.533 52.3817 136.548 52.7779 136.401 53.3145L135.699 55.9073H134.116L134.725 53.6656C134.796 53.4098 134.796 53.2293 134.73 53.1214C134.665 53.0161 134.543 52.961 134.371 52.961C134.179 52.961 134.007 53.0337 133.848 53.1766C133.691 53.3195 133.562 53.5778 133.461 53.9489L132.93 55.9073H131.355L132.462 51.8301H132.457Z" fill="white"/>
<path d="M139.425 53.1515L137.961 52.9935C138.088 52.7327 138.227 52.5271 138.374 52.3767C138.52 52.2262 138.71 52.0958 138.942 51.988C139.109 51.9077 139.324 51.8476 139.59 51.8049C139.855 51.7623 140.133 51.7397 140.429 51.7397C140.902 51.7397 141.273 51.7673 141.546 51.8175C141.82 51.8701 142.027 51.9805 142.173 52.146C142.277 52.2613 142.338 52.4243 142.358 52.6349C142.378 52.8456 142.363 53.0487 142.31 53.2392L141.822 55.0396C141.769 55.2327 141.741 55.3831 141.736 55.491C141.731 55.5988 141.746 55.7392 141.784 55.9072H140.305C140.275 55.8019 140.257 55.7217 140.255 55.6665C140.252 55.6113 140.255 55.5261 140.27 55.4082C140.009 55.6063 139.767 55.7467 139.539 55.8295C139.231 55.9423 138.889 55.9975 138.52 55.9975C138.03 55.9975 137.688 55.8846 137.496 55.659C137.304 55.4333 137.251 55.155 137.342 54.8265C137.425 54.5181 137.587 54.2623 137.825 54.0617C138.063 53.8611 138.442 53.7132 138.96 53.6154C139.582 53.4975 139.989 53.4148 140.176 53.3671C140.366 53.3195 140.568 53.2568 140.785 53.1816C140.839 52.9885 140.833 52.8556 140.775 52.7779C140.717 52.7001 140.586 52.6625 140.383 52.6625C140.126 52.6625 139.921 52.7026 139.769 52.7854C139.65 52.8481 139.536 52.9684 139.428 53.1465L139.425 53.1515ZM140.568 53.9739C140.33 54.0517 140.085 54.1194 139.835 54.177C139.491 54.2623 139.266 54.345 139.16 54.4278C139.049 54.513 138.98 54.6083 138.95 54.7162C138.917 54.839 138.932 54.9393 138.998 55.0171C139.064 55.0948 139.18 55.1349 139.347 55.1349C139.514 55.1349 139.696 55.0923 139.87 55.0095C140.045 54.9243 140.179 54.8215 140.275 54.7011C140.371 54.5782 140.447 54.4203 140.497 54.2272L140.565 53.9789L140.568 53.9739Z" fill="white"/>
<path d="M144.714 50.2803H146.294L144.767 55.9096H143.187L144.714 50.2803Z" fill="white"/>
<path d="M154.633 54.2573H151.475C151.434 54.508 151.452 54.6961 151.528 54.819C151.632 54.9945 151.806 55.0848 152.051 55.0848C152.206 55.0848 152.365 55.0471 152.524 54.9694C152.623 54.9218 152.736 54.834 152.868 54.7111L154.382 54.8541C154.033 55.2628 153.667 55.5562 153.285 55.7342C152.903 55.9122 152.395 56 151.768 56C151.225 56 150.815 55.9248 150.544 55.7718C150.274 55.6188 150.082 55.3781 149.965 55.0471C149.849 54.7161 149.854 54.325 149.976 53.8786C150.148 53.2417 150.494 52.7252 151.012 52.3315C151.53 51.9378 152.152 51.7397 152.878 51.7397C153.467 51.7397 153.907 51.8275 154.2 52.0055C154.494 52.1836 154.683 52.4368 154.769 52.7728C154.855 53.1088 154.827 53.5451 154.681 54.0818L154.633 54.2573ZM153.232 53.5075C153.283 53.2066 153.26 52.9885 153.161 52.8581C153.065 52.7277 152.906 52.6625 152.691 52.6625C152.441 52.6625 152.213 52.7603 152.011 52.9584C151.882 53.0813 151.771 53.2643 151.68 53.5075H153.232Z" fill="white"/>
<path d="M160.46 50.2803H162.217L160.69 55.9096H158.933L160.46 50.2803Z" fill="white"/>
<path d="M163.552 51.8301H165.019L164.839 52.4946C165.132 52.2238 165.405 52.0282 165.663 51.9128C165.919 51.7975 166.209 51.7373 166.531 51.7373C166.965 51.7373 167.274 51.8652 167.451 52.1235C167.628 52.3817 167.643 52.7779 167.496 53.3145L166.793 55.9073H165.211L165.82 53.6656C165.888 53.4098 165.891 53.2293 165.825 53.1214C165.759 53.0161 165.638 52.961 165.466 52.961C165.274 52.961 165.1 53.0337 164.943 53.1766C164.786 53.3195 164.657 53.5778 164.556 53.9489L164.025 55.9073H162.45L163.557 51.8301H163.552Z" fill="white"/>
<path d="M171.764 50.2803L171.342 51.8325H172.209L171.898 52.9759H171.031L170.639 54.4202C170.591 54.5932 170.578 54.7086 170.596 54.7663C170.624 54.854 170.702 54.8966 170.831 54.8966C170.947 54.8966 171.119 54.8641 171.347 54.7963L171.17 55.8746C170.758 55.9598 170.381 55.9999 170.045 55.9999C169.653 55.9999 169.377 55.9498 169.218 55.8495C169.059 55.7492 168.963 55.5987 168.93 55.3956C168.897 55.1925 168.94 54.864 169.064 54.4077L169.453 52.9734H168.872L169.183 51.83H169.764L169.966 51.0802L171.764 50.2778V50.2803Z" fill="white"/>
<path d="M177.47 54.2573H174.313C174.272 54.508 174.29 54.6961 174.366 54.819C174.469 54.9945 174.644 55.0848 174.889 55.0848C175.043 55.0848 175.202 55.0471 175.362 54.9694C175.46 54.9218 175.574 54.834 175.706 54.7111L177.22 54.8541C176.871 55.2628 176.505 55.5562 176.123 55.7342C175.741 55.9122 175.233 56 174.606 56C174.062 56 173.653 55.9248 173.382 55.7718C173.112 55.6188 172.917 55.3781 172.803 55.0471C172.689 54.7161 172.692 54.325 172.813 53.8786C172.985 53.2417 173.332 52.7252 173.85 52.3315C174.368 51.9378 174.99 51.7397 175.716 51.7397C176.305 51.7397 176.745 51.8275 177.038 52.0055C177.331 52.1811 177.521 52.4368 177.607 52.7728C177.695 53.1088 177.665 53.5451 177.518 54.0818L177.47 54.2573ZM176.07 53.5075C176.12 53.2066 176.097 52.9885 175.999 52.8581C175.903 52.7277 175.744 52.6625 175.529 52.6625C175.278 52.6625 175.051 52.7603 174.849 52.9584C174.72 53.0813 174.608 53.2643 174.517 53.5075H176.07Z" fill="white"/>
<path d="M179.47 51.83H180.944L180.762 52.4995C180.982 52.2112 181.184 52.0106 181.364 51.9027C181.543 51.7949 181.746 51.7397 181.968 51.7397C182.19 51.7397 182.436 51.8125 182.673 51.9554L181.885 53.0687C181.72 52.991 181.584 52.9534 181.475 52.9534C181.268 52.9534 181.086 53.0386 180.926 53.2066C180.699 53.4448 180.497 53.8912 180.32 54.5431L179.948 55.9097H178.365L179.473 51.8325L179.47 51.83Z" fill="white"/>
<path d="M183.97 51.8301H185.437L185.257 52.4946C185.551 52.2238 185.826 52.0282 186.082 51.9128C186.337 51.7975 186.628 51.7373 186.949 51.7373C187.384 51.7373 187.692 51.8652 187.869 52.1235C188.046 52.3817 188.061 52.7779 187.915 53.3145L187.212 55.9073H185.629L186.238 53.6656C186.309 53.4098 186.309 53.2293 186.243 53.1214C186.178 53.0161 186.056 52.961 185.884 52.961C185.692 52.961 185.52 53.0337 185.361 53.1766C185.204 53.3195 185.075 53.5778 184.974 53.9489L184.443 55.9073H182.868L183.976 51.8301H183.97Z" fill="white"/>
<path d="M190.938 53.1515L189.474 52.9935C189.601 52.7327 189.74 52.5271 189.887 52.3767C190.033 52.2262 190.223 52.0958 190.455 51.988C190.622 51.9077 190.837 51.8476 191.103 51.8049C191.368 51.7623 191.646 51.7397 191.942 51.7397C192.415 51.7397 192.786 51.7673 193.06 51.8175C193.333 51.8701 193.54 51.9805 193.687 52.146C193.79 52.2613 193.851 52.4243 193.871 52.6349C193.891 52.8456 193.876 53.0487 193.823 53.2392L193.335 55.0396C193.282 55.2327 193.254 55.3831 193.249 55.491C193.244 55.5988 193.259 55.7392 193.297 55.9072H191.818C191.788 55.8019 191.77 55.7217 191.768 55.6665C191.765 55.6113 191.768 55.5261 191.783 55.4082C191.522 55.6063 191.28 55.7467 191.052 55.8295C190.744 55.9423 190.402 55.9975 190.033 55.9975C189.543 55.9975 189.201 55.8846 189.009 55.659C188.817 55.4333 188.764 55.155 188.855 54.8265C188.938 54.5181 189.1 54.2623 189.338 54.0617C189.576 53.8611 189.955 53.7132 190.473 53.6154C191.095 53.4975 191.502 53.4148 191.689 53.3671C191.879 53.3195 192.081 53.2568 192.299 53.1816C192.352 52.9885 192.347 52.8556 192.288 52.7779C192.23 52.7001 192.099 52.6625 191.897 52.6625C191.639 52.6625 191.434 52.7026 191.282 52.7854C191.163 52.8481 191.05 52.9684 190.941 53.1465L190.938 53.1515ZM192.081 53.9739C191.843 54.0517 191.598 54.1194 191.348 54.177C191.004 54.2623 190.779 54.345 190.673 54.4278C190.562 54.513 190.493 54.6083 190.463 54.7162C190.43 54.839 190.445 54.9393 190.511 55.0171C190.577 55.0948 190.693 55.1349 190.86 55.1349C191.027 55.1349 191.209 55.0923 191.383 55.0095C191.558 54.9243 191.692 54.8215 191.788 54.7011C191.884 54.5782 191.96 54.4203 192.01 54.2272L192.079 53.9789L192.081 53.9739Z" fill="white"/>
<path d="M198.144 54.31L199.595 54.478C199.428 54.7889 199.221 55.0547 198.971 55.2829C198.72 55.5086 198.432 55.6866 198.106 55.812C197.78 55.9374 197.39 56.0001 196.938 56.0001C196.485 56.0001 196.149 55.9599 195.881 55.8797C195.613 55.7995 195.398 55.6691 195.239 55.4885C195.08 55.308 194.971 55.0974 194.92 54.8541C194.867 54.6109 194.895 54.2899 195.004 53.8862C195.118 53.4675 195.284 53.1189 195.504 52.8381C195.666 52.6325 195.861 52.4494 196.086 52.289C196.313 52.126 196.536 52.0056 196.751 51.9254C197.092 51.8 197.502 51.7373 197.982 51.7373C198.652 51.7373 199.132 51.8552 199.421 52.0934C199.709 52.3316 199.861 52.6801 199.878 53.1365L198.344 53.3321C198.344 53.1591 198.296 53.0262 198.197 52.9384C198.098 52.8506 197.947 52.8055 197.739 52.8055C197.479 52.8055 197.244 52.8983 197.031 53.0838C196.819 53.2694 196.662 53.5502 196.561 53.9264C196.47 54.2598 196.48 54.5156 196.594 54.6886C196.708 54.8617 196.887 54.9494 197.135 54.9494C197.342 54.9494 197.529 54.8968 197.699 54.7914C197.868 54.6861 198.017 54.5256 198.146 54.3075L198.144 54.31Z" fill="white"/>
<path d="M201.701 51.83H203.276L202.169 55.9072H200.594L201.701 51.83ZM202.123 50.2778H203.698L203.41 51.341H201.835L202.123 50.2778Z" fill="white"/>
<path d="M204.136 53.8812C204.305 53.2593 204.654 52.7478 205.187 52.3441C205.721 51.9403 206.345 51.7397 207.066 51.7397C207.89 51.7397 208.446 51.9755 208.74 52.4494C208.975 52.8305 209.015 53.3019 208.864 53.8586C208.694 54.4855 208.345 54.9995 207.817 55.4007C207.288 55.8019 206.654 56.0025 205.913 56.0025C205.253 56.0025 204.763 55.837 204.447 55.5035C204.057 55.0923 203.954 54.5507 204.136 53.8837V53.8812ZM205.716 53.8786C205.617 54.2422 205.617 54.5105 205.718 54.6836C205.82 54.8566 205.981 54.9443 206.206 54.9443C206.431 54.9443 206.644 54.8591 206.836 54.6861C207.028 54.513 207.175 54.2397 207.278 53.8611C207.374 53.5075 207.372 53.2442 207.271 53.0712C207.17 52.8982 207.013 52.813 206.795 52.813C206.565 52.813 206.353 52.9007 206.156 53.0762C205.959 53.2518 205.812 53.5176 205.713 53.8761L205.716 53.8786Z" fill="white"/>
<path d="M210.775 51.8301H212.241L212.062 52.4946C212.355 52.2238 212.631 52.0282 212.886 51.9128C213.141 51.7975 213.432 51.7373 213.753 51.7373C214.188 51.7373 214.496 51.8652 214.673 52.1235C214.85 52.3817 214.866 52.7779 214.719 53.3145L214.016 55.9073H212.433L213.043 53.6656C213.114 53.4098 213.114 53.2293 213.048 53.1214C212.982 53.0161 212.861 52.961 212.689 52.961C212.497 52.961 212.325 53.0337 212.165 53.1766C212.009 53.3195 211.88 53.5778 211.779 53.9489L211.248 55.9073H209.673L210.78 51.8301H210.775Z" fill="white"/>
<path d="M217.745 53.1515L216.281 52.9935C216.408 52.7327 216.547 52.5271 216.693 52.3767C216.84 52.2262 217.03 52.0958 217.262 51.988C217.429 51.9077 217.644 51.8476 217.91 51.8049C218.175 51.7623 218.453 51.7397 218.749 51.7397C219.222 51.7397 219.593 51.7673 219.866 51.8175C220.139 51.8701 220.347 51.9805 220.493 52.146C220.597 52.2613 220.658 52.4243 220.678 52.6349C220.698 52.8456 220.683 53.0487 220.63 53.2392L220.142 55.0396C220.089 55.2327 220.061 55.3831 220.056 55.491C220.051 55.5988 220.066 55.7392 220.104 55.9072H218.625C218.595 55.8019 218.577 55.7217 218.574 55.6665C218.572 55.6113 218.574 55.5261 218.59 55.4082C218.329 55.6063 218.087 55.7467 217.859 55.8295C217.551 55.9423 217.209 55.9975 216.84 55.9975C216.35 55.9975 216.008 55.8846 215.816 55.659C215.624 55.4333 215.571 55.155 215.662 54.8265C215.745 54.5181 215.907 54.2623 216.145 54.0617C216.382 53.8611 216.762 53.7132 217.28 53.6154C217.902 53.4975 218.309 53.4148 218.496 53.3671C218.686 53.3195 218.888 53.2568 219.105 53.1816C219.158 52.9885 219.153 52.8556 219.095 52.7779C219.037 52.7001 218.906 52.6625 218.703 52.6625C218.446 52.6625 218.241 52.7026 218.089 52.7854C217.97 52.8481 217.856 52.9684 217.748 53.1465L217.745 53.1515ZM218.888 53.9739C218.65 54.0517 218.405 54.1194 218.155 54.177C217.811 54.2623 217.586 54.345 217.48 54.4278C217.368 54.513 217.3 54.6083 217.27 54.7162C217.237 54.839 217.252 54.9393 217.318 55.0171C217.384 55.0948 217.5 55.1349 217.667 55.1349C217.834 55.1349 218.016 55.0923 218.19 55.0095C218.365 54.9243 218.499 54.8215 218.595 54.7011C218.691 54.5782 218.767 54.4203 218.817 54.2272L218.885 53.9789L218.888 53.9739Z" fill="white"/>
<path d="M223.032 50.2803H224.612L223.085 55.9096H221.505L223.032 50.2803Z" fill="white"/>
<path d="M225.747 47.9234H0.252825C0.113771 47.9234 0 47.8105 0 47.6726C0 47.5347 0.113771 47.4219 0.252825 47.4219H225.747C225.886 47.4219 226 47.5347 226 47.6726C226 47.8105 225.886 47.9234 225.747 47.9234Z" fill="white"/>
<path d="M4.94519 10.7196V0L11.913 6.98088L18.8834 0V10.7196H15.359V7.021L11.913 11.2838L8.46957 7.021V10.7196H4.94519Z" fill="#E73E3B"/>
<path d="M31.6107 0.952769L34.3134 0.493896V10.7195H31.6107V0.952769Z" fill="#E73E3B"/>
<path d="M80.3098 0.952769L83.0125 0.493896V10.7195H80.3098V0.952769Z" fill="#E73E3B"/>
<path d="M41.4583 3.5957H44.2317V10.7195L41.4583 10.7546V3.5957Z" fill="#E73E3B"/>
<path d="M40.7124 0.844971H45.0155L42.8639 3.45528L40.7124 0.844971Z" fill="#E73E3B"/>
<path d="M183.419 3.5957H186.193V10.7195L183.419 10.7546V3.5957Z" fill="#E73E3B"/>
<path d="M182.673 0.844971H186.974L184.825 3.45528L182.673 0.844971Z" fill="#E73E3B"/>
<path d="M198.222 3.5957H200.996V10.7195L198.222 10.7546V3.5957Z" fill="#E73E3B"/>
<path d="M197.476 0.844971H201.777L199.625 3.45528L197.476 0.844971Z" fill="#E73E3B"/>
<path d="M224.382 8.48535H221.3V10.7546H224.382V8.48535Z" fill="#E73E3B"/>
<path d="M35.4511 3.59564L35.0946 5.18289H36.1969V8.92158C36.1969 8.92158 36.3739 10.6843 38.3662 10.7195H40.7124V9.02689H39.8957C39.8957 9.02689 39.0235 8.99178 39.0235 8.1618L39.0058 5.2531H40.7124V3.59564H39.1474V1.02295L36.2677 1.90057V3.59815H35.4511V3.59564Z" fill="#E73E3B"/>
<path d="M50.3829 3.59564L50.0264 5.18289H51.1287V8.92158C51.1287 8.92158 51.3057 10.6843 53.2979 10.7195H55.6441V9.02689H54.8275C54.8275 9.02689 53.9553 8.99178 53.9553 8.1618L53.9376 5.2531H55.6441V3.59564H54.0791V1.02295L51.1995 1.90057V3.59815H50.3829V3.59564Z" fill="#E73E3B"/>
<path d="M155.502 0.845012V3.17448C155.502 3.17448 151.922 2.85603 150.903 2.93877C150.14 3.00146 149.718 3.69102 150.903 4.06715C152.089 4.44327 154.837 5.52401 155.502 6.08819C156.782 7.17645 156.782 9.91965 153.796 10.7547C150.81 11.5896 146.211 10.7547 146.211 10.7547V8.3299C146.211 8.3299 150.287 8.95677 151.52 8.62829C152.754 8.29981 152.658 7.46481 151.662 7.17645C150.666 6.88809 147.822 5.855 146.97 5.19552C146.118 4.53856 145.405 1.76276 148.866 0.847519C150.489 0.418737 152.517 0.493962 155.502 0.847519V0.845012Z" fill="#E73E3B"/>
<path d="M123.866 3.77639V5.43886C123.866 5.43886 121.308 5.21318 120.58 5.27086C120.034 5.31599 119.733 5.80746 120.58 6.07827C121.427 6.34908 123.391 7.12139 123.866 7.52259C124.782 8.29992 124.782 10.2608 122.645 10.8576C120.509 11.4544 117.222 10.8576 117.222 10.8576V9.12488C117.222 9.12488 120.137 9.57373 121.017 9.33802C121.897 9.10232 121.831 8.50553 121.118 8.29992C120.405 8.0943 118.373 7.35459 117.763 6.88318C117.154 6.41177 116.646 4.43084 119.118 3.77388C120.279 3.46546 121.728 3.52062 123.861 3.77388L123.866 3.77639Z" fill="#E73E3B"/>
<path d="M220.284 3.77639V5.43886C220.284 5.43886 217.725 5.21318 216.997 5.27086C216.451 5.31599 216.15 5.80746 216.997 6.07827C217.844 6.34908 219.808 7.12139 220.284 7.52259C221.199 8.29992 221.199 10.2608 219.062 10.8576C216.926 11.4544 213.639 10.8576 213.639 10.8576V9.12488C213.639 9.12488 216.554 9.57373 217.434 9.33802C218.314 9.10232 218.248 8.50553 217.535 8.29992C216.822 8.0943 214.79 7.35459 214.18 6.88318C213.571 6.41177 213.063 4.43084 215.536 3.77388C216.696 3.46546 218.145 3.52062 220.279 3.77388L220.284 3.77639Z" fill="#E73E3B"/>
<path d="M78.7979 3.77639V5.43886C78.7979 5.43886 76.2393 5.21318 75.5112 5.27086C74.9651 5.31599 74.6642 5.80746 75.5112 6.07827C76.3582 6.34908 78.3226 7.12139 78.7979 7.52259C79.7131 8.29992 79.7131 10.2608 77.5768 10.8576C75.4404 11.4544 72.1537 10.8576 72.1537 10.8576V9.12488C72.1537 9.12488 75.0687 9.57373 75.9486 9.33802C76.8284 9.10232 76.7627 8.50553 76.0497 8.29992C75.3367 8.0943 73.304 7.35459 72.6947 6.88318C72.0854 6.41177 71.5772 4.43084 74.0499 3.77388C75.2103 3.46546 76.659 3.52062 78.7929 3.77388L78.7979 3.77639Z" fill="#E73E3B"/>
<path d="M179.87 3.5957H183.187L178.019 11.1257L172.474 3.5957H175.996L177.829 6.60972L179.87 3.5957Z" fill="#E73E3B"/>
<path d="M194.766 6.34643L196.864 5.32337C196.586 4.9322 196.124 4.38556 195.406 3.94926C193.525 2.80082 191.087 3.11426 189.505 4.15989C189.113 4.41816 188.332 4.94975 187.904 5.95777C187.785 6.2361 187.558 6.92315 187.702 7.76818C187.871 8.75112 188.458 9.34791 188.792 9.66134C189.97 10.7596 191.431 10.8775 192.099 10.9301C192.721 10.9803 194.288 11.1057 195.76 10.1202C196.409 9.68391 196.829 9.17238 197.074 8.81632L194.905 7.72305C194.791 7.92114 194.523 8.32485 194.015 8.60569C193.375 8.95924 192.774 8.9442 192.463 8.92414C191.965 8.88903 191.206 8.57058 190.923 8.14932C190.496 7.51492 190.706 6.73509 190.756 6.58715C190.809 6.43921 191.047 5.8675 191.633 5.57663C192.296 5.24814 192.943 5.35847 193.269 5.43621C194.068 5.62427 194.564 6.12577 194.763 6.35395L194.766 6.34643Z" fill="#E73E3B"/>
<path d="M130.698 3.52563H133.684V7.54767C133.684 7.65047 133.706 8.27233 134.217 8.71115C134.859 9.26029 135.681 9.01455 135.747 8.99199C136.235 8.83652 136.508 8.48798 136.601 8.35759V3.52563H139.516V10.7548C139.483 10.9779 139.418 11.2889 139.266 11.6374C139.17 11.8581 138.925 12.4122 138.376 12.8711C138.022 13.167 137.638 13.4453 136.51 13.6108C135.711 13.7287 133.878 13.7161 132.935 13.5757V11.848H135.14C135.319 11.828 135.62 11.7703 135.921 11.5672C136.551 11.1384 136.652 10.4263 136.667 10.2984C136.477 10.3862 136.212 10.504 135.886 10.6168C135.547 10.7347 134.981 10.9278 134.391 10.9704C133.107 11.0607 132.111 10.3937 131.974 10.3009C131.188 9.75928 130.779 9.14996 130.66 8.71365L130.695 3.53065L130.698 3.52563Z" fill="#E73E3B"/>
<path d="M168.136 3.59578V10.7547H171.157V6.32895C171.157 6.32895 171.496 4.93729 173.45 5.51903V3.59828C173.45 3.59828 172.171 3.22717 171.193 4.16247L171.016 4.35555V3.59828H168.136V3.59578Z" fill="#E73E3B"/>
<path d="M56.4254 3.59578V10.7547H59.4467V6.32895C59.4467 6.32895 59.7855 4.93729 61.7398 5.51903V3.59828C61.7398 3.59828 60.4605 3.22717 59.4821 4.16247L59.3051 4.35555V3.59828H56.4254V3.59578Z" fill="#E73E3B"/>
<path d="M101.58 0.917715L101.628 3.92672C101.221 3.69603 100.109 3.13936 98.6421 3.29232C98.182 3.33996 96.794 3.4854 95.7498 4.6564C95.5551 4.87455 94.5792 5.96782 94.7537 7.52498C94.918 8.99437 95.9951 9.83439 96.3187 10.0876C97.6865 11.1533 99.6914 11.374 101.107 10.5816C101.433 10.3986 101.673 10.193 101.83 10.04V10.7571H104.604V0.529053C103.597 0.659443 102.589 0.787325 101.582 0.917715H101.58ZM99.7546 9.07461C98.7003 9.07461 97.8457 8.22708 97.8457 7.18145C97.8457 6.13582 98.7003 5.28829 99.7546 5.28829C100.809 5.28829 101.663 6.13582 101.663 7.18145C101.663 8.22708 100.809 9.07461 99.7546 9.07461Z" fill="#E73E3B"/>
<path d="M65.292 3.59586C64.2959 3.61842 63.4792 3.72123 62.9205 3.80649V5.52162C63.8559 5.44388 64.6473 5.42633 65.2439 5.42633C66.6446 5.42884 67.1174 5.53917 67.4713 5.87267C67.7419 6.12843 67.8632 6.43936 67.9214 6.64748C67.0794 6.35912 65.6687 6.02312 64.1062 6.38921C63.0747 6.62993 62.612 7.02862 62.4224 7.21167C62.2126 7.41478 61.7929 8.06923 61.894 8.90423C61.98 9.61636 62.3289 10.0451 62.7081 10.316C64.0557 11.2763 65.6864 10.9955 66.0732 10.9278C66.8064 10.7999 67.3727 10.5391 67.7317 10.3385V10.7498H70.4825V5.50156C70.169 4.16255 68.3916 3.52565 65.292 3.59836V3.59586ZM66.1339 9.51857C65.2642 9.51857 64.5588 9.10734 64.5588 8.60083C64.5588 8.09431 65.2642 7.68308 66.1339 7.68308C67.0036 7.68308 67.709 8.09431 67.709 8.60083C67.709 9.10734 67.0036 9.51857 66.1339 9.51857Z" fill="#E73E3B"/>
<path d="M87.983 3.59586C86.9869 3.61842 86.1703 3.72123 85.6115 3.80649V5.52162C86.547 5.44388 87.3383 5.42633 87.935 5.42633C89.3356 5.42884 89.8084 5.53917 90.1624 5.87267C90.4329 6.12843 90.5542 6.43936 90.6124 6.64748C89.7705 6.35912 88.3597 6.02312 86.7973 6.38921C85.7657 6.62993 85.3031 7.02862 85.1135 7.21167C84.9036 7.41478 84.4839 8.06923 84.5851 8.90423C84.671 9.61636 85.0199 10.0451 85.3992 10.316C86.7467 11.2763 88.3774 10.9955 88.7642 10.9278C89.4974 10.7999 90.0638 10.5391 90.4228 10.3385V10.7498H93.1735V5.50156C92.86 4.16255 91.0827 3.52565 87.983 3.59836V3.59586ZM88.8249 9.51857C87.9552 9.51857 87.2498 9.10734 87.2498 8.60083C87.2498 8.09431 87.9552 7.68308 88.8249 7.68308C89.6946 7.68308 90.4 8.09431 90.4 8.60083C90.4 9.10734 89.6946 9.51857 88.8249 9.51857Z" fill="#E73E3B"/>
<path d="M111.197 3.27979C108.381 3.27979 106.095 5.03504 106.095 7.20402C106.095 9.37301 108.378 11.1283 111.197 11.1283C114.016 11.1283 116.299 9.37301 116.299 7.20402C116.299 5.03504 114.016 3.27979 111.197 3.27979ZM111.197 8.869C110.001 8.869 109.031 8.12177 109.031 7.20152C109.031 6.28126 110.001 5.53403 111.197 5.53403C112.393 5.53403 113.364 6.28126 113.364 7.20152C113.364 8.12177 112.393 8.869 111.197 8.869Z" fill="#E73E3B"/>
<path d="M207.349 3.27979C204.533 3.27979 202.247 5.03504 202.247 7.20402C202.247 9.37301 204.53 11.1283 207.349 11.1283C210.168 11.1283 212.451 9.37301 212.451 7.20402C212.451 5.03504 210.168 3.27979 207.349 3.27979ZM207.349 8.869C206.153 8.869 205.182 8.12177 205.182 7.20152C205.182 6.28126 206.153 5.53403 207.349 5.53403C208.545 5.53403 209.516 6.28126 209.516 7.20152C209.516 8.12177 208.545 8.869 207.349 8.869Z" fill="#E73E3B"/>
<path d="M20.9693 3.57324H23.7427V7.82847C23.8009 7.98895 23.9425 8.30991 24.2636 8.58072C24.3849 8.68102 24.8855 9.0747 25.5909 8.97941C26.3367 8.87911 26.721 8.31242 26.7766 8.22716V3.57324H29.5729V10.7547C28.7183 10.7547 27.6287 10.7547 26.7766 10.7547V10.0601C26.7235 10.2006 26.6047 10.2883 26.4202 10.3911C26.1193 10.5616 25.3886 10.8801 24.4759 10.9328C23.945 10.9628 22.9944 11.0155 22.1297 10.3911C21.2828 9.7793 21.0223 8.88162 20.944 8.55815L20.9667 3.57575L20.9693 3.57324Z" fill="#E73E3B"/>
<path d="M163.679 8.36759C163.608 8.43028 162.733 9.15495 161.641 8.86157C161.042 8.70109 160.678 8.31494 160.526 8.13189C162.635 7.68555 164.746 7.23922 166.854 6.79288C166.809 6.52709 166.715 6.13843 166.498 5.71215C165.883 4.50604 164.778 3.99201 164.364 3.80896C163.292 3.33003 162.336 3.37516 161.78 3.41027C161.183 3.44537 160.02 3.51558 158.913 4.32801C158.554 4.5913 157.773 5.17805 157.419 6.25628C157.345 6.47945 157.158 7.07874 157.277 7.78335C157.54 9.3405 159.092 10.1805 159.53 10.4162C161.107 11.2688 163.191 11.3164 164.862 10.3686C165.893 9.78433 166.488 8.98193 166.781 8.51052L164.197 7.71063C164.106 7.88615 163.944 8.1369 163.676 8.36759H163.679ZM161.072 5.38116C161.643 5.06522 162.518 4.91978 163.181 5.35859C163.433 5.52409 163.588 5.73221 163.679 5.87514L160.028 6.64996C160.101 6.44183 160.364 5.77233 161.07 5.38116H161.072Z" fill="#E73E3B"/>
</g>
<defs>
<clipPath id="clip0_203_378">
<rect width="226" height="56" fill="white"/>
</clipPath>
</defs>
</svg>
