<svg width="226" height="56" viewBox="0 0 226 56" fill="none" xmlns="http://www.w3.org/2000/svg">
<g clip-path="url(#clip0_208_863)">
<path d="M0.252808 44.9946H18.3146V22.4271H36.3764V44.9946H54.509V22.4271H67.6635C67.6635 22.4271 72.4267 22.5675 72.4267 24.8243V44.9946H90.4885V23.9767C90.4885 23.9767 91.4138 14.8093 68.3739 14.8093H0.252808V44.9921V44.9946Z" fill="white"/>
<path d="M90.4935 14.8093H153.558V22.4271H130.948V44.9946H113.028V22.2842H90.4935V14.8093Z" fill="white"/>
<path d="M221.181 14.8093V22.4246H176.881C176.881 22.4246 171.62 22.565 171.62 24.6111C171.62 26.6573 176.81 26.9381 176.81 26.9381H205.893C205.893 26.9381 225.745 27.4321 225.745 36.0353C225.745 44.6385 206.388 44.9921 206.388 44.9921H158.036V37.5172H203.332C203.332 37.5172 207.883 37.3066 207.883 35.3307C207.883 33.3548 203.119 33.074 203.119 33.074H171.051C171.051 33.074 153.558 31.8754 153.558 23.8363C153.558 15.7973 171.832 14.8093 171.832 14.8093H221.181Z" fill="white"/>
<path d="M1.96191 50.2805H7.29146L6.91475 51.6696H5.12728L3.97693 55.9098H2.22232L3.37268 51.6696H1.58521L1.96191 50.2805Z" fill="white"/>
<path d="M7.83757 51.83H9.31154L9.12951 52.4995C9.34946 52.2112 9.54919 52.0106 9.73123 51.9027C9.91073 51.7949 10.113 51.7397 10.3355 51.7397C10.558 51.7397 10.8032 51.8125 11.0409 51.9554L10.252 53.0687C10.0877 52.991 9.95119 52.9534 9.84247 52.9534C9.63515 52.9534 9.45312 53.0386 9.29384 53.2066C9.0663 53.4448 8.86404 53.8912 8.68706 54.5431L8.31541 55.9097H6.73273L7.8401 51.8325L7.83757 51.83Z" fill="white"/>
<path d="M13.157 53.1515L11.6932 52.9935C11.8196 52.7327 11.9586 52.5271 12.1053 52.3767C12.2519 52.2262 12.4415 52.0958 12.6741 51.988C12.841 51.9077 13.0559 51.8476 13.3213 51.8049C13.5868 51.7623 13.8649 51.7397 14.1607 51.7397C14.6335 51.7397 15.0052 51.7673 15.2782 51.8175C15.5513 51.8701 15.7586 51.9805 15.9052 52.146C16.0089 52.2613 16.0695 52.4243 16.0898 52.6349C16.11 52.8456 16.0948 53.0487 16.0417 53.2392L15.5538 55.0396C15.5007 55.2327 15.4729 55.3831 15.4678 55.491C15.4628 55.5988 15.4779 55.7392 15.5159 55.9072H14.0368C14.0065 55.8019 13.9888 55.7217 13.9863 55.6665C13.9837 55.6113 13.9863 55.5261 14.0014 55.4082C13.741 55.6063 13.4983 55.7467 13.2708 55.8295C12.9623 55.9423 12.621 55.9975 12.2519 55.9975C11.7614 55.9975 11.4201 55.8846 11.228 55.659C11.0358 55.4333 10.9827 55.155 11.0737 54.8265C11.1572 54.5181 11.319 54.2623 11.5566 54.0617C11.7943 53.8611 12.1735 53.7132 12.6918 53.6154C13.3138 53.4975 13.7208 53.4148 13.9079 53.3671C14.0975 53.3195 14.2998 53.2568 14.5172 53.1816C14.5703 52.9885 14.5652 52.8556 14.5071 52.7779C14.4489 52.7001 14.3175 52.6625 14.1152 52.6625C13.8573 52.6625 13.6525 52.7026 13.5008 52.7854C13.382 52.8481 13.2682 52.9684 13.1595 53.1465L13.157 53.1515ZM14.2998 53.9739C14.0621 54.0517 13.8169 54.1194 13.5666 54.177C13.2227 54.2623 12.9977 54.345 12.8915 54.4278C12.7854 54.5105 12.712 54.6083 12.6817 54.7162C12.6488 54.839 12.664 54.9393 12.7297 55.0171C12.7955 55.0948 12.9118 55.1349 13.0786 55.1349C13.2455 55.1349 13.4301 55.0923 13.602 55.0095C13.7764 54.9243 13.9104 54.8215 14.0065 54.7011C14.1026 54.5782 14.1784 54.4203 14.229 54.2272L14.2972 53.9789L14.2998 53.9739Z" fill="white"/>
<path d="M16.8937 54.7763L18.4966 54.6309C18.5118 54.8164 18.5649 54.9468 18.661 55.0271C18.7545 55.1073 18.8986 55.1474 19.0933 55.1474C19.3057 55.1474 19.4801 55.1023 19.6217 55.012C19.7304 54.9468 19.7987 54.8616 19.824 54.7638C19.8543 54.651 19.8189 54.5657 19.7178 54.503C19.6445 54.4604 19.4321 54.4052 19.0832 54.3425C18.5624 54.2472 18.2059 54.1595 18.0138 54.0792C17.8216 53.999 17.68 53.8636 17.5865 53.6705C17.4929 53.48 17.4803 53.2593 17.546 53.0136C17.6193 52.7453 17.7609 52.5146 17.9708 52.319C18.1806 52.1259 18.436 51.9805 18.7394 51.8827C19.0402 51.7874 19.4245 51.7397 19.8897 51.7397C20.3802 51.7397 20.7316 51.7774 20.9465 51.8501C21.1589 51.9253 21.3232 52.0406 21.437 52.1961C21.5508 52.3516 21.6241 52.5622 21.6544 52.8305L20.1198 52.9759C20.1173 52.8456 20.0768 52.7503 20.0035 52.6876C19.9024 52.6048 19.7633 52.5647 19.5889 52.5647C19.4144 52.5647 19.2728 52.5948 19.1742 52.66C19.0756 52.7227 19.0149 52.7979 18.9897 52.8882C18.9618 52.9885 18.9947 53.0637 19.0832 53.1139C19.1717 53.164 19.3841 53.2116 19.7203 53.2518C20.2285 53.3094 20.5951 53.3922 20.8226 53.4975C21.0502 53.6028 21.2044 53.7508 21.2878 53.9463C21.3713 54.1419 21.3814 54.3551 21.3182 54.5858C21.255 54.8215 21.121 55.0496 20.9162 55.2728C20.7114 55.496 20.4383 55.6715 20.0945 55.8044C19.7507 55.9373 19.3133 56.0025 18.7798 56.0025C18.0289 56.0025 17.5233 55.8972 17.2629 55.684C17.0025 55.4709 16.8786 55.17 16.8963 54.7788L16.8937 54.7763Z" fill="white"/>
<path d="M23.8919 50.2804H25.4721L23.945 55.9097H22.3649L23.8919 50.2804Z" fill="white"/>
<path d="M27.7349 53.1515L26.271 52.9935C26.3974 52.7327 26.5365 52.5271 26.6831 52.3767C26.8298 52.2262 27.0194 52.0958 27.252 51.988C27.4189 51.9077 27.6338 51.8476 27.8992 51.8049C28.1647 51.7623 28.4428 51.7397 28.7386 51.7397C29.2114 51.7397 29.583 51.7673 29.8561 51.8175C30.1291 51.8701 30.3365 51.9805 30.4831 52.146C30.5868 52.2613 30.6474 52.4243 30.6677 52.6349C30.6879 52.8456 30.6727 53.0487 30.6196 53.2392L30.1317 55.0396C30.0786 55.2327 30.0508 55.3831 30.0457 55.491C30.0406 55.5988 30.0558 55.7392 30.0937 55.9072H28.6147C28.5844 55.8019 28.5667 55.7217 28.5642 55.6665C28.5616 55.6113 28.5642 55.5261 28.5793 55.4082C28.3189 55.6063 28.0762 55.7467 27.8487 55.8295C27.5402 55.9423 27.1989 55.9975 26.8298 55.9975C26.3393 55.9975 25.998 55.8846 25.8058 55.659C25.6137 55.4333 25.5606 55.155 25.6516 54.8265C25.735 54.5181 25.8969 54.2623 26.1345 54.0617C26.3722 53.8611 26.7514 53.7132 27.2697 53.6154C27.8916 53.4975 28.2987 53.4148 28.4858 53.3671C28.6754 53.3195 28.8777 53.2568 29.0951 53.1816C29.1482 52.9885 29.1431 52.8556 29.085 52.7779C29.0268 52.7001 28.8954 52.6625 28.6931 52.6625C28.4352 52.6625 28.2304 52.7026 28.0787 52.7854C27.9599 52.8481 27.8461 52.9684 27.7374 53.1465L27.7349 53.1515ZM28.8777 53.9739C28.64 54.0517 28.3948 54.1194 28.1445 54.177C27.8006 54.2623 27.5756 54.345 27.4694 54.4278C27.3632 54.5105 27.2899 54.6083 27.2596 54.7162C27.2267 54.839 27.2419 54.9393 27.3076 55.0171C27.3733 55.0948 27.4896 55.1349 27.6565 55.1349C27.8234 55.1349 28.0079 55.0923 28.1799 55.0095C28.3543 54.9243 28.4883 54.8215 28.5844 54.7011C28.6805 54.5782 28.7563 54.4203 28.8069 54.2272L28.8751 53.9789L28.8777 53.9739Z" fill="white"/>
<path d="M37.2967 50.2804L35.7696 55.9097H34.2957L34.46 55.3079C34.1844 55.5637 33.9493 55.7367 33.7546 55.827C33.4942 55.9448 33.2262 56.0025 32.9481 56.0025C32.3869 56.0025 32.0177 55.7919 31.8357 55.3681C31.6537 54.9469 31.6461 54.4328 31.8104 53.8285C31.995 53.1515 32.2984 52.6349 32.7206 52.2764C33.1453 51.9178 33.608 51.7398 34.1111 51.7398C34.3564 51.7398 34.5687 51.7799 34.7457 51.8626C34.9227 51.9454 35.0668 52.0682 35.178 52.2312L35.7064 50.2804H37.2967ZM34.7457 53.8586C34.8317 53.5376 34.8291 53.2994 34.7356 53.144C34.642 52.9885 34.4904 52.9083 34.2805 52.9083C34.0959 52.9083 33.924 52.9835 33.7572 53.1339C33.5928 53.2844 33.4614 53.5376 33.3653 53.8937C33.2743 54.2272 33.2717 54.4704 33.3577 54.6259C33.4437 54.7814 33.5802 54.8591 33.7698 54.8591C33.9721 54.8591 34.1592 54.7814 34.3361 54.6259C34.5131 54.4704 34.6496 54.2147 34.7457 53.8611V53.8586Z" fill="white"/>
<path d="M37.6886 53.8812C37.8579 53.2593 38.2068 52.7478 38.7403 52.3441C39.2738 51.9403 39.8982 51.7397 40.6188 51.7397C41.443 51.7397 41.9992 51.9755 42.2925 52.4494C42.5276 52.8305 42.5681 53.3019 42.4164 53.8586C42.247 54.4855 41.8981 54.9995 41.3697 55.4007C40.8413 55.8019 40.2067 56.0025 39.4659 56.0025C38.806 56.0025 38.3156 55.837 37.9995 55.5035C37.6102 55.0923 37.5065 54.5507 37.6886 53.8837V53.8812ZM39.2687 53.8786C39.1701 54.2422 39.1701 54.5105 39.2712 54.6836C39.3724 54.8566 39.5342 54.9443 39.7592 54.9443C39.9842 54.9443 40.1966 54.8591 40.3887 54.6861C40.5809 54.513 40.7275 54.2397 40.8312 53.8611C40.9272 53.5075 40.9247 53.2442 40.8236 53.0712C40.7224 52.8982 40.5657 52.813 40.3483 52.813C40.1182 52.813 39.9058 52.9007 39.7086 53.0762C39.5114 53.2518 39.3648 53.5176 39.2662 53.8761L39.2687 53.8786Z" fill="white"/>
<path d="M50.3146 54.9794H48.3224L47.794 55.9097H46.004L49.6649 50.2804H51.5787L52.183 55.9097H50.3475L50.3146 54.9794ZM50.2818 53.7633L50.2034 51.7398L49.0353 53.7633H50.2818Z" fill="white"/>
<path d="M57.4948 55.9072H56.0234L56.2029 55.2477C55.9096 55.5186 55.6366 55.7116 55.3812 55.827C55.1259 55.9423 54.8376 56 54.5115 56C54.0792 56 53.7733 55.8721 53.5963 55.6138C53.4193 55.3556 53.4041 54.9594 53.5482 54.4253L54.2536 51.83H55.8363L55.227 54.0717C55.1587 54.3275 55.1562 54.5105 55.2219 54.6159C55.2877 54.7237 55.4065 54.7763 55.5809 54.7763C55.7706 54.7763 55.9425 54.7036 56.1018 54.5607C56.261 54.4178 56.39 54.1595 56.4911 53.7884L57.0246 51.8275H58.5997L57.4923 55.9047L57.4948 55.9072Z" fill="white"/>
<path d="M62.4806 50.2804L62.0584 51.8325H62.9255L62.6146 52.976H61.7474L61.3555 54.4203C61.3075 54.5933 61.2948 54.7086 61.3125 54.7663C61.3403 54.8541 61.4187 54.8967 61.5476 54.8967C61.6639 54.8967 61.8359 54.8641 62.0634 54.7964L61.8864 55.8746C61.4743 55.9599 61.0976 56 60.7614 56C60.3695 56 60.0939 55.9499 59.9346 55.8496C59.7753 55.7493 59.6793 55.5988 59.6464 55.3957C59.6135 55.1926 59.6565 54.8641 59.7804 54.4077L60.1698 52.9735H59.5883L59.8992 51.83H60.4807L60.683 51.0803L62.4806 50.2779V50.2804Z" fill="white"/>
<path d="M63.5298 53.8812C63.6992 53.2593 64.0481 52.7478 64.5816 52.3441C65.115 51.9403 65.7395 51.7397 66.46 51.7397C67.2842 51.7397 67.8405 51.9755 68.1337 52.4494C68.3689 52.8305 68.4093 53.3019 68.2576 53.8586C68.0882 54.4855 67.7393 54.9995 67.2109 55.4007C66.6825 55.8019 66.0479 56.0025 65.3072 56.0025C64.6473 56.0025 64.1568 55.837 63.8408 55.5035C63.4514 55.0923 63.3478 54.5507 63.5298 53.8837V53.8812ZM65.11 53.8786C65.0114 54.2422 65.0114 54.5105 65.1125 54.6836C65.2136 54.8566 65.3754 54.9443 65.6004 54.9443C65.8254 54.9443 66.0378 54.8591 66.23 54.6861C66.4221 54.513 66.5688 54.2397 66.6724 53.8611C66.7685 53.5075 66.766 53.2442 66.6648 53.0712C66.5637 52.8982 66.4069 52.813 66.1895 52.813C65.9594 52.813 65.7471 52.9007 65.5499 53.0762C65.3527 53.2518 65.206 53.5176 65.1074 53.8761L65.11 53.8786Z" fill="white"/>
<path d="M70.1816 51.83H71.6531L71.4912 52.4243C71.7694 52.1761 72.0323 51.998 72.2775 51.8952C72.5228 51.7924 72.7958 51.7372 73.1017 51.7372C73.4304 51.7372 73.6731 51.7949 73.8349 51.9103C73.9942 52.0256 74.1055 52.1961 74.1636 52.4243C74.4822 52.1585 74.7577 51.978 74.9878 51.8802C75.2179 51.7849 75.4808 51.7372 75.7817 51.7372C76.2216 51.7372 76.53 51.8676 76.707 52.1259C76.884 52.3867 76.8966 52.7929 76.7475 53.3446L76.0522 55.9047H74.472L75.1016 53.5828C75.1521 53.3972 75.1521 53.2618 75.1041 53.1715C75.0358 53.0311 74.9246 52.9609 74.7679 52.9609C74.5833 52.9609 74.4164 53.0286 74.2673 53.1615C74.1181 53.2944 74.0043 53.5075 73.9234 53.8034L73.352 55.9072H71.7719L72.3812 53.6605C72.4292 53.4825 72.452 53.3596 72.4495 53.2969C72.4444 53.1941 72.409 53.1114 72.3407 53.0487C72.275 52.986 72.1865 52.9534 72.0753 52.9534C71.8932 52.9534 71.7264 53.0211 71.5721 53.1565C71.4179 53.2919 71.2991 53.5151 71.2157 53.826L70.6519 55.9072H69.0717L70.1791 51.83H70.1816Z" fill="white"/>
<path d="M77.9509 53.8812C78.1203 53.2593 78.4692 52.7478 79.0026 52.3441C79.5361 51.9403 80.1606 51.7397 80.8811 51.7397C81.7053 51.7397 82.2615 51.9755 82.5548 52.4494C82.7899 52.8305 82.8304 53.3019 82.6787 53.8586C82.5093 54.4855 82.1604 54.9995 81.632 55.4007C81.1036 55.8019 80.469 56.0025 79.7282 56.0025C79.0684 56.0025 78.5779 55.837 78.2619 55.5035C77.8725 55.0923 77.7688 54.5507 77.9509 53.8837V53.8812ZM79.531 53.8786C79.4324 54.2422 79.4324 54.5105 79.5336 54.6836C79.6347 54.8566 79.7965 54.9443 80.0215 54.9443C80.2465 54.9443 80.4589 54.8591 80.651 54.6861C80.8432 54.513 80.9898 54.2397 81.0935 53.8611C81.1896 53.5075 81.187 53.2442 81.0859 53.0712C80.9848 52.8982 80.828 52.813 80.6106 52.813C80.3805 52.813 80.1682 52.9007 79.9709 53.0762C79.7737 53.2518 79.6271 53.5176 79.5285 53.8761L79.531 53.8786Z" fill="white"/>
<path d="M86.9136 50.2804L86.4913 51.8325H87.3585L87.0476 52.976H86.1804L85.7885 54.4203C85.7405 54.5933 85.7278 54.7086 85.7455 54.7663C85.7733 54.8541 85.8517 54.8967 85.9806 54.8967C86.0969 54.8967 86.2689 54.8641 86.4964 54.7964L86.3194 55.8746C85.9073 55.9599 85.5306 56 85.1944 56C84.8025 56 84.5269 55.9499 84.3676 55.8496C84.2083 55.7493 84.1123 55.5988 84.0794 55.3957C84.0465 55.1926 84.0895 54.8641 84.2134 54.4077L84.6027 52.9735H84.0212L84.3322 51.83H84.9137L85.116 51.0803L86.9136 50.2779V50.2804Z" fill="white"/>
<path d="M88.7288 51.83H90.2028L90.0207 52.4995C90.2407 52.2112 90.4404 52.0106 90.6225 51.9027C90.802 51.7949 91.0042 51.7397 91.2267 51.7397C91.4492 51.7397 91.6944 51.8125 91.9321 51.9554L91.1433 53.0687C90.9789 52.991 90.8424 52.9534 90.7337 52.9534C90.5264 52.9534 90.3444 53.0386 90.1851 53.2066C89.9575 53.4448 89.7553 53.8912 89.5783 54.5431L89.2066 55.9097H87.624L88.7313 51.8325L88.7288 51.83Z" fill="white"/>
<path d="M92.8928 51.83H94.4679L93.3606 55.9072H91.7855L92.8928 51.83ZM93.315 50.2779H94.8901L94.6019 51.3411H93.0268L93.315 50.2779Z" fill="white"/>
<path d="M95.899 51.83H99.7116L99.4638 52.7427L96.8192 54.839H99.0213L98.7306 55.9072H94.6348L94.9104 54.8942L97.4235 52.8982H95.6082L95.899 51.83Z" fill="white"/>
<path d="M104.872 50.2804H106.51L107.802 53.3947L108.646 50.2804H110.3L108.773 55.9097H107.119L105.832 52.818L104.993 55.9097H103.345L104.872 50.2804Z" fill="white"/>
<path d="M112.621 53.1515L111.157 52.9935C111.283 52.7327 111.422 52.5271 111.569 52.3767C111.716 52.2262 111.905 52.0958 112.138 51.988C112.305 51.9077 112.52 51.8476 112.785 51.8049C113.051 51.7623 113.329 51.7397 113.624 51.7397C114.097 51.7397 114.469 51.7673 114.742 51.8175C115.015 51.8701 115.222 51.9805 115.369 52.146C115.473 52.2613 115.533 52.4243 115.554 52.6349C115.574 52.8456 115.559 53.0487 115.505 53.2392L115.018 55.0396C114.964 55.2327 114.937 55.3831 114.932 55.491C114.927 55.5988 114.942 55.7392 114.98 55.9072H113.501C113.47 55.8019 113.453 55.7217 113.45 55.6665C113.447 55.6113 113.45 55.5261 113.465 55.4082C113.205 55.6063 112.962 55.7467 112.735 55.8295C112.426 55.9423 112.085 55.9975 111.716 55.9975C111.225 55.9975 110.884 55.8846 110.692 55.659C110.5 55.4333 110.446 55.155 110.537 54.8265C110.621 54.5181 110.783 54.2623 111.02 54.0617C111.258 53.8611 111.637 53.7132 112.156 53.6154C112.777 53.4975 113.185 53.4148 113.372 53.3671C113.561 53.3195 113.764 53.2568 113.981 53.1816C114.034 52.9885 114.029 52.8556 113.971 52.7779C113.913 52.7001 113.781 52.6625 113.579 52.6625C113.321 52.6625 113.116 52.7026 112.965 52.7854C112.846 52.8481 112.732 52.9684 112.623 53.1465L112.621 53.1515ZM113.764 53.9739C113.526 54.0517 113.281 54.1194 113.03 54.177C112.686 54.2623 112.461 54.345 112.355 54.4278C112.244 54.513 112.176 54.6083 112.145 54.7162C112.113 54.839 112.128 54.9393 112.193 55.0171C112.259 55.0948 112.376 55.1349 112.542 55.1349C112.709 55.1349 112.891 55.0923 113.066 55.0095C113.24 54.9243 113.374 54.8215 113.47 54.7011C113.566 54.5782 113.642 54.4203 113.693 54.2272L113.761 53.9789L113.764 53.9739Z" fill="white"/>
<path d="M119.826 54.3099L121.277 54.4779C121.111 54.7889 120.903 55.0547 120.653 55.2828C120.403 55.5085 120.114 55.6866 119.788 55.8119C119.462 55.9373 119.073 56 118.62 56C118.168 56 117.831 55.9599 117.563 55.8796C117.295 55.7994 117.081 55.669 116.921 55.4885C116.762 55.3079 116.653 55.0973 116.603 54.8541C116.55 54.6108 116.577 54.2899 116.686 53.8862C116.8 53.4674 116.967 53.1189 117.187 52.838C117.349 52.6324 117.543 52.4494 117.768 52.2889C117.996 52.1259 118.218 52.0055 118.433 51.9253C118.774 51.7999 119.184 51.7372 119.664 51.7372C120.334 51.7372 120.815 51.8551 121.103 52.0933C121.391 52.3315 121.543 52.6801 121.561 53.1364L120.026 53.332C120.026 53.159 119.978 53.0261 119.879 52.9383C119.781 52.8506 119.629 52.8054 119.422 52.8054C119.161 52.8054 118.926 52.8982 118.714 53.0838C118.501 53.2693 118.345 53.5502 118.244 53.9263C118.153 54.2598 118.163 54.5156 118.276 54.6886C118.39 54.8616 118.57 54.9494 118.817 54.9494C119.025 54.9494 119.212 54.8967 119.381 54.7914C119.551 54.6861 119.7 54.5256 119.829 54.3074L119.826 54.3099Z" fill="white"/>
<path d="M123.381 51.83H124.956L123.849 55.9072H122.274L123.381 51.83ZM123.803 50.2779H125.378L125.09 51.3411H123.515L123.803 50.2779Z" fill="white"/>
<path d="M125.816 53.8812C125.985 53.2593 126.334 52.7478 126.867 52.3441C127.401 51.9403 128.025 51.7397 128.746 51.7397C129.57 51.7397 130.126 51.9755 130.42 52.4494C130.655 52.8305 130.695 53.3019 130.544 53.8586C130.374 54.4855 130.025 54.9995 129.497 55.4007C128.968 55.8019 128.334 56.0025 127.593 56.0025C126.933 56.0025 126.443 55.837 126.127 55.5035C125.737 55.0923 125.634 54.5507 125.816 53.8837V53.8812ZM127.396 53.8786C127.297 54.2422 127.297 54.5105 127.398 54.6836C127.499 54.8566 127.661 54.9443 127.886 54.9443C128.111 54.9443 128.324 54.8591 128.516 54.6861C128.708 54.513 128.855 54.2397 128.958 53.8611C129.054 53.5075 129.052 53.2442 128.951 53.0712C128.85 52.8982 128.693 52.813 128.475 52.813C128.245 52.813 128.033 52.9007 127.836 53.0762C127.639 53.2518 127.492 53.5176 127.393 53.8761L127.396 53.8786Z" fill="white"/>
<path d="M132.457 51.83H133.924L133.744 52.4945C134.038 52.2237 134.313 52.0281 134.568 51.9128C134.824 51.7974 135.115 51.7372 135.436 51.7372C135.87 51.7372 136.179 51.8651 136.356 52.1234C136.533 52.3817 136.548 52.7779 136.401 53.3145L135.699 55.9072H134.116L134.725 53.6655C134.796 53.4097 134.796 53.2292 134.73 53.1214C134.665 53.0161 134.543 52.9609 134.371 52.9609C134.179 52.9609 134.007 53.0336 133.848 53.1766C133.691 53.3195 133.562 53.5777 133.461 53.9489L132.93 55.9072H131.355L132.462 51.83H132.457Z" fill="white"/>
<path d="M139.425 53.1515L137.961 52.9935C138.088 52.7327 138.227 52.5271 138.374 52.3767C138.52 52.2262 138.71 52.0958 138.942 51.988C139.109 51.9077 139.324 51.8476 139.59 51.8049C139.855 51.7623 140.133 51.7397 140.429 51.7397C140.902 51.7397 141.273 51.7673 141.546 51.8175C141.82 51.8701 142.027 51.9805 142.173 52.146C142.277 52.2613 142.338 52.4243 142.358 52.6349C142.378 52.8456 142.363 53.0487 142.31 53.2392L141.822 55.0396C141.769 55.2327 141.741 55.3831 141.736 55.491C141.731 55.5988 141.746 55.7392 141.784 55.9072H140.305C140.275 55.8019 140.257 55.7217 140.255 55.6665C140.252 55.6113 140.255 55.5261 140.27 55.4082C140.009 55.6063 139.767 55.7467 139.539 55.8295C139.231 55.9423 138.889 55.9975 138.52 55.9975C138.03 55.9975 137.688 55.8846 137.496 55.659C137.304 55.4333 137.251 55.155 137.342 54.8265C137.425 54.5181 137.587 54.2623 137.825 54.0617C138.063 53.8611 138.442 53.7132 138.96 53.6154C139.582 53.4975 139.989 53.4148 140.176 53.3671C140.366 53.3195 140.568 53.2568 140.785 53.1816C140.839 52.9885 140.833 52.8556 140.775 52.7779C140.717 52.7001 140.586 52.6625 140.383 52.6625C140.126 52.6625 139.921 52.7026 139.769 52.7854C139.65 52.8481 139.536 52.9684 139.428 53.1465L139.425 53.1515ZM140.568 53.9739C140.33 54.0517 140.085 54.1194 139.835 54.177C139.491 54.2623 139.266 54.345 139.16 54.4278C139.049 54.513 138.98 54.6083 138.95 54.7162C138.917 54.839 138.932 54.9393 138.998 55.0171C139.064 55.0948 139.18 55.1349 139.347 55.1349C139.514 55.1349 139.696 55.0923 139.87 55.0095C140.045 54.9243 140.179 54.8215 140.275 54.7011C140.371 54.5782 140.447 54.4203 140.497 54.2272L140.565 53.9789L140.568 53.9739Z" fill="white"/>
<path d="M144.714 50.2804H146.294L144.767 55.9097H143.187L144.714 50.2804Z" fill="white"/>
<path d="M154.633 54.2573H151.475C151.434 54.508 151.452 54.6961 151.528 54.819C151.632 54.9945 151.806 55.0848 152.051 55.0848C152.206 55.0848 152.365 55.0471 152.524 54.9694C152.623 54.9218 152.736 54.834 152.868 54.7111L154.382 54.8541C154.033 55.2628 153.667 55.5562 153.285 55.7342C152.903 55.9122 152.395 56 151.768 56C151.225 56 150.815 55.9248 150.544 55.7718C150.274 55.6188 150.082 55.3781 149.965 55.0471C149.849 54.7161 149.854 54.325 149.976 53.8786C150.148 53.2417 150.494 52.7252 151.012 52.3315C151.53 51.9378 152.152 51.7397 152.878 51.7397C153.467 51.7397 153.907 51.8275 154.2 52.0055C154.494 52.1836 154.683 52.4368 154.769 52.7728C154.855 53.1088 154.827 53.5451 154.681 54.0818L154.633 54.2573ZM153.232 53.5075C153.283 53.2066 153.26 52.9885 153.161 52.8581C153.065 52.7277 152.906 52.6625 152.691 52.6625C152.441 52.6625 152.213 52.7603 152.011 52.9584C151.882 53.0813 151.771 53.2643 151.68 53.5075H153.232Z" fill="white"/>
<path d="M160.46 50.2804H162.217L160.69 55.9097H158.933L160.46 50.2804Z" fill="white"/>
<path d="M163.552 51.83H165.019L164.839 52.4945C165.132 52.2237 165.405 52.0281 165.663 51.9128C165.919 51.7974 166.209 51.7372 166.531 51.7372C166.965 51.7372 167.274 51.8651 167.451 52.1234C167.628 52.3817 167.643 52.7779 167.496 53.3145L166.793 55.9072H165.211L165.82 53.6655C165.888 53.4097 165.891 53.2292 165.825 53.1214C165.759 53.0161 165.638 52.9609 165.466 52.9609C165.274 52.9609 165.1 53.0336 164.943 53.1766C164.786 53.3195 164.657 53.5777 164.556 53.9489L164.025 55.9072H162.45L163.557 51.83H163.552Z" fill="white"/>
<path d="M171.764 50.2804L171.342 51.8325H172.209L171.898 52.976H171.031L170.639 54.4203C170.591 54.5933 170.578 54.7086 170.596 54.7663C170.624 54.8541 170.702 54.8967 170.831 54.8967C170.947 54.8967 171.119 54.8641 171.347 54.7964L171.17 55.8746C170.758 55.9599 170.381 56 170.045 56C169.653 56 169.377 55.9499 169.218 55.8496C169.059 55.7493 168.963 55.5988 168.93 55.3957C168.897 55.1926 168.94 54.8641 169.064 54.4077L169.453 52.9735H168.872L169.183 51.83H169.764L169.966 51.0803L171.764 50.2779V50.2804Z" fill="white"/>
<path d="M177.47 54.2573H174.313C174.272 54.508 174.29 54.6961 174.366 54.819C174.469 54.9945 174.644 55.0848 174.889 55.0848C175.043 55.0848 175.202 55.0471 175.362 54.9694C175.46 54.9218 175.574 54.834 175.706 54.7111L177.22 54.8541C176.871 55.2628 176.505 55.5562 176.123 55.7342C175.741 55.9122 175.233 56 174.606 56C174.062 56 173.653 55.9248 173.382 55.7718C173.112 55.6188 172.917 55.3781 172.803 55.0471C172.689 54.7161 172.692 54.325 172.813 53.8786C172.985 53.2417 173.332 52.7252 173.85 52.3315C174.368 51.9378 174.99 51.7397 175.716 51.7397C176.305 51.7397 176.745 51.8275 177.038 52.0055C177.331 52.1811 177.521 52.4368 177.607 52.7728C177.695 53.1088 177.665 53.5451 177.518 54.0818L177.47 54.2573ZM176.07 53.5075C176.12 53.2066 176.097 52.9885 175.999 52.8581C175.903 52.7277 175.744 52.6625 175.529 52.6625C175.278 52.6625 175.051 52.7603 174.849 52.9584C174.72 53.0813 174.608 53.2643 174.517 53.5075H176.07Z" fill="white"/>
<path d="M179.47 51.83H180.944L180.762 52.4995C180.982 52.2112 181.184 52.0106 181.364 51.9027C181.543 51.7949 181.746 51.7397 181.968 51.7397C182.191 51.7397 182.436 51.8125 182.673 51.9554L181.885 53.0687C181.72 52.991 181.584 52.9534 181.475 52.9534C181.268 52.9534 181.086 53.0386 180.926 53.2066C180.699 53.4448 180.497 53.8912 180.32 54.5431L179.948 55.9097H178.365L179.473 51.8325L179.47 51.83Z" fill="white"/>
<path d="M183.97 51.83H185.437L185.257 52.4945C185.551 52.2237 185.826 52.0281 186.082 51.9128C186.337 51.7974 186.628 51.7372 186.949 51.7372C187.384 51.7372 187.692 51.8651 187.869 52.1234C188.046 52.3817 188.061 52.7779 187.914 53.3145L187.212 55.9072H185.629L186.238 53.6655C186.309 53.4097 186.309 53.2292 186.243 53.1214C186.178 53.0161 186.056 52.9609 185.884 52.9609C185.692 52.9609 185.52 53.0336 185.361 53.1766C185.204 53.3195 185.075 53.5777 184.974 53.9489L184.443 55.9072H182.868L183.975 51.83H183.97Z" fill="white"/>
<path d="M190.938 53.1515L189.474 52.9935C189.601 52.7327 189.74 52.5271 189.887 52.3767C190.033 52.2262 190.223 52.0958 190.455 51.988C190.622 51.9077 190.837 51.8476 191.103 51.8049C191.368 51.7623 191.646 51.7397 191.942 51.7397C192.415 51.7397 192.786 51.7673 193.059 51.8175C193.333 51.8701 193.54 51.9805 193.686 52.146C193.79 52.2613 193.851 52.4243 193.871 52.6349C193.891 52.8456 193.876 53.0487 193.823 53.2392L193.335 55.0396C193.282 55.2327 193.254 55.3831 193.249 55.491C193.244 55.5988 193.259 55.7392 193.297 55.9072H191.818C191.788 55.8019 191.77 55.7217 191.768 55.6665C191.765 55.6113 191.768 55.5261 191.783 55.4082C191.522 55.6063 191.28 55.7467 191.052 55.8295C190.744 55.9423 190.402 55.9975 190.033 55.9975C189.543 55.9975 189.201 55.8846 189.009 55.659C188.817 55.4333 188.764 55.155 188.855 54.8265C188.938 54.5181 189.1 54.2623 189.338 54.0617C189.576 53.8611 189.955 53.7132 190.473 53.6154C191.095 53.4975 191.502 53.4148 191.689 53.3671C191.879 53.3195 192.081 53.2568 192.298 53.1816C192.352 52.9885 192.346 52.8556 192.288 52.7779C192.23 52.7001 192.099 52.6625 191.896 52.6625C191.639 52.6625 191.434 52.7026 191.282 52.7854C191.163 52.8481 191.049 52.9684 190.941 53.1465L190.938 53.1515ZM192.081 53.9739C191.843 54.0517 191.598 54.1194 191.348 54.177C191.004 54.2623 190.779 54.345 190.673 54.4278C190.562 54.513 190.493 54.6083 190.463 54.7162C190.43 54.839 190.445 54.9393 190.511 55.0171C190.577 55.0948 190.693 55.1349 190.86 55.1349C191.027 55.1349 191.209 55.0923 191.383 55.0095C191.558 54.9243 191.692 54.8215 191.788 54.7011C191.884 54.5782 191.96 54.4203 192.01 54.2272L192.078 53.9789L192.081 53.9739Z" fill="white"/>
<path d="M198.144 54.3099L199.595 54.4779C199.428 54.7889 199.221 55.0547 198.97 55.2828C198.72 55.5085 198.432 55.6866 198.106 55.8119C197.78 55.9373 197.39 56 196.938 56C196.485 56 196.149 55.9599 195.881 55.8796C195.613 55.7994 195.398 55.669 195.239 55.4885C195.08 55.3079 194.971 55.0973 194.92 54.8541C194.867 54.6108 194.895 54.2899 195.004 53.8862C195.117 53.4674 195.284 53.1189 195.504 52.838C195.666 52.6324 195.861 52.4494 196.086 52.2889C196.313 52.1259 196.536 52.0055 196.751 51.9253C197.092 51.7999 197.502 51.7372 197.982 51.7372C198.652 51.7372 199.132 51.8551 199.421 52.0933C199.709 52.3315 199.86 52.6801 199.878 53.1364L198.343 53.332C198.343 53.159 198.295 53.0261 198.197 52.9383C198.098 52.8506 197.947 52.8054 197.739 52.8054C197.479 52.8054 197.244 52.8982 197.031 53.0838C196.819 53.2693 196.662 53.5502 196.561 53.9263C196.47 54.2598 196.48 54.5156 196.594 54.6886C196.708 54.8616 196.887 54.9494 197.135 54.9494C197.342 54.9494 197.529 54.8967 197.699 54.7914C197.868 54.6861 198.017 54.5256 198.146 54.3074L198.144 54.3099Z" fill="white"/>
<path d="M201.701 51.83H203.276L202.169 55.9072H200.594L201.701 51.83ZM202.123 50.2779H203.698L203.41 51.3411H201.835L202.123 50.2779Z" fill="white"/>
<path d="M204.136 53.8812C204.305 53.2593 204.654 52.7478 205.187 52.3441C205.721 51.9403 206.345 51.7397 207.066 51.7397C207.89 51.7397 208.446 51.9755 208.74 52.4494C208.975 52.8305 209.015 53.3019 208.864 53.8586C208.694 54.4855 208.345 54.9995 207.817 55.4007C207.288 55.8019 206.654 56.0025 205.913 56.0025C205.253 56.0025 204.763 55.837 204.447 55.5035C204.057 55.0923 203.954 54.5507 204.136 53.8837V53.8812ZM205.716 53.8786C205.617 54.2422 205.617 54.5105 205.718 54.6836C205.82 54.8566 205.981 54.9443 206.206 54.9443C206.431 54.9443 206.644 54.8591 206.836 54.6861C207.028 54.513 207.175 54.2397 207.278 53.8611C207.374 53.5075 207.372 53.2442 207.271 53.0712C207.17 52.8982 207.013 52.813 206.795 52.813C206.565 52.813 206.353 52.9007 206.156 53.0762C205.959 53.2518 205.812 53.5176 205.713 53.8761L205.716 53.8786Z" fill="white"/>
<path d="M210.775 51.83H212.241L212.062 52.4945C212.355 52.2237 212.631 52.0281 212.886 51.9128C213.141 51.7974 213.432 51.7372 213.753 51.7372C214.188 51.7372 214.496 51.8651 214.673 52.1234C214.85 52.3817 214.866 52.7779 214.719 53.3145L214.016 55.9072H212.433L213.043 53.6655C213.113 53.4097 213.113 53.2292 213.048 53.1214C212.982 53.0161 212.861 52.9609 212.689 52.9609C212.497 52.9609 212.325 53.0336 212.165 53.1766C212.009 53.3195 211.88 53.5777 211.779 53.9489L211.248 55.9072H209.673L210.78 51.83H210.775Z" fill="white"/>
<path d="M217.745 53.1515L216.281 52.9935C216.408 52.7327 216.547 52.5271 216.694 52.3767C216.84 52.2262 217.03 52.0958 217.262 51.988C217.429 51.9077 217.644 51.8476 217.91 51.8049C218.175 51.7623 218.453 51.7397 218.749 51.7397C219.222 51.7397 219.593 51.7673 219.866 51.8175C220.14 51.8701 220.347 51.9805 220.493 52.146C220.597 52.2613 220.658 52.4243 220.678 52.6349C220.698 52.8456 220.683 53.0487 220.63 53.2392L220.142 55.0396C220.089 55.2327 220.061 55.3831 220.056 55.491C220.051 55.5988 220.066 55.7392 220.104 55.9072H218.625C218.595 55.8019 218.577 55.7217 218.575 55.6665C218.572 55.6113 218.575 55.5261 218.59 55.4082C218.329 55.6063 218.087 55.7467 217.859 55.8295C217.551 55.9423 217.209 55.9975 216.84 55.9975C216.35 55.9975 216.008 55.8846 215.816 55.659C215.624 55.4333 215.571 55.155 215.662 54.8265C215.745 54.5181 215.907 54.2623 216.145 54.0617C216.383 53.8611 216.762 53.7132 217.28 53.6154C217.902 53.4975 218.309 53.4148 218.496 53.3671C218.686 53.3195 218.888 53.2568 219.105 53.1816C219.159 52.9885 219.154 52.8556 219.095 52.7779C219.037 52.7001 218.906 52.6625 218.703 52.6625C218.446 52.6625 218.241 52.7026 218.089 52.7854C217.97 52.8481 217.857 52.9684 217.748 53.1465L217.745 53.1515ZM218.888 53.9739C218.65 54.0517 218.405 54.1194 218.155 54.177C217.811 54.2623 217.586 54.345 217.48 54.4278C217.369 54.513 217.3 54.6083 217.27 54.7162C217.237 54.839 217.252 54.9393 217.318 55.0171C217.384 55.0948 217.5 55.1349 217.667 55.1349C217.834 55.1349 218.016 55.0923 218.19 55.0095C218.365 54.9243 218.499 54.8215 218.595 54.7011C218.691 54.5782 218.767 54.4203 218.817 54.2272L218.886 53.9789L218.888 53.9739Z" fill="white"/>
<path d="M223.032 50.2804H224.612L223.085 55.9097H221.505L223.032 50.2804Z" fill="white"/>
<path d="M225.747 47.9233H0.252825C0.113771 47.9233 0 47.8105 0 47.6726C0 47.5347 0.113771 47.4218 0.252825 47.4218H225.747C225.886 47.4218 226 47.5347 226 47.6726C226 47.8105 225.886 47.9233 225.747 47.9233Z" fill="white"/>
<path d="M4.94525 10.7196V0L11.9131 6.98088L18.8835 0V10.7196H15.3591V7.021L11.9131 11.2838L8.46963 7.021V10.7196H4.94525Z" fill="white"/>
<path d="M31.6107 0.95283L34.3134 0.493958V10.7195H31.6107V0.95283Z" fill="white"/>
<path d="M80.3098 0.95283L83.0124 0.493958V10.7195H80.3098V0.95283Z" fill="white"/>
<path d="M41.4582 3.59576H44.2317V10.7196L41.4582 10.7547V3.59576Z" fill="white"/>
<path d="M40.7123 0.845032H45.0154L42.8639 3.45534L40.7123 0.845032Z" fill="white"/>
<path d="M183.419 3.59576H186.193V10.7196L183.419 10.7547V3.59576Z" fill="white"/>
<path d="M182.673 0.845032H186.974L184.825 3.45534L182.673 0.845032Z" fill="white"/>
<path d="M198.222 3.59576H200.996V10.7196L198.222 10.7547V3.59576Z" fill="white"/>
<path d="M197.476 0.845032H201.777L199.625 3.45534L197.476 0.845032Z" fill="white"/>
<path d="M224.382 8.48535H221.3V10.7546H224.382V8.48535Z" fill="white"/>
<path d="M35.4511 3.59577L35.0946 5.18301H36.1969V8.9217C36.1969 8.9217 36.3739 10.6845 38.3662 10.7196H40.7124V9.02701H39.8957C39.8957 9.02701 39.0235 8.99191 39.0235 8.16192L39.0058 5.25322H40.7124V3.59577H39.1474V1.02307L36.2677 1.9007V3.59827H35.4511V3.59577Z" fill="white"/>
<path d="M50.3829 3.59577L50.0264 5.18301H51.1287V8.9217C51.1287 8.9217 51.3057 10.6845 53.298 10.7196H55.6442V9.02701H54.8276C54.8276 9.02701 53.9553 8.99191 53.9553 8.16192L53.9376 5.25322H55.6442V3.59577H54.0792V1.02307L51.1995 1.9007V3.59827H50.3829V3.59577Z" fill="white"/>
<path d="M155.502 0.845012V3.17448C155.502 3.17448 151.922 2.85603 150.903 2.93877C150.14 3.00146 149.718 3.69102 150.903 4.06715C152.089 4.44327 154.837 5.52401 155.502 6.08819C156.782 7.17645 156.782 9.91965 153.796 10.7547C150.81 11.5896 146.211 10.7547 146.211 10.7547V8.3299C146.211 8.3299 150.287 8.95677 151.52 8.62829C152.754 8.29981 152.658 7.46481 151.662 7.17645C150.666 6.88809 147.822 5.855 146.97 5.19552C146.118 4.53856 145.405 1.76276 148.866 0.847519C150.489 0.418737 152.517 0.493962 155.502 0.847519V0.845012Z" fill="white"/>
<path d="M123.866 3.77627V5.43874C123.866 5.43874 121.308 5.21306 120.58 5.27074C120.034 5.31587 119.733 5.80734 120.58 6.07815C121.427 6.34896 123.391 7.12127 123.866 7.52247C124.782 8.2998 124.782 10.2607 122.645 10.8574C120.509 11.4542 117.222 10.8574 117.222 10.8574V9.12476C117.222 9.12476 120.137 9.57361 121.017 9.3379C121.897 9.1022 121.831 8.50541 121.118 8.29979C120.405 8.09418 118.373 7.35447 117.763 6.88306C117.154 6.41165 116.646 4.43072 119.118 3.77376C120.279 3.46534 121.728 3.5205 123.861 3.77376L123.866 3.77627Z" fill="white"/>
<path d="M220.284 3.77627V5.43874C220.284 5.43874 217.725 5.21306 216.997 5.27074C216.451 5.31587 216.15 5.80734 216.997 6.07815C217.844 6.34896 219.808 7.12127 220.284 7.52247C221.199 8.2998 221.199 10.2607 219.062 10.8574C216.926 11.4542 213.639 10.8574 213.639 10.8574V9.12476C213.639 9.12476 216.554 9.57361 217.434 9.3379C218.314 9.1022 218.248 8.50541 217.535 8.29979C216.822 8.09418 214.79 7.35447 214.18 6.88306C213.571 6.41165 213.063 4.43072 215.536 3.77376C216.696 3.46534 218.145 3.5205 220.279 3.77376L220.284 3.77627Z" fill="white"/>
<path d="M78.7979 3.77627V5.43874C78.7979 5.43874 76.2393 5.21306 75.5111 5.27074C74.965 5.31587 74.6642 5.80734 75.5111 6.07815C76.3581 6.34896 78.3225 7.12127 78.7979 7.52247C79.7131 8.2998 79.7131 10.2607 77.5767 10.8574C75.4403 11.4542 72.1536 10.8574 72.1536 10.8574V9.12476C72.1536 9.12476 75.0687 9.57361 75.9485 9.3379C76.8283 9.1022 76.7626 8.50541 76.0496 8.29979C75.3367 8.09418 73.304 7.35447 72.6947 6.88306C72.0854 6.41165 71.5772 4.43072 74.0498 3.77376C75.2103 3.46534 76.659 3.5205 78.7928 3.77376L78.7979 3.77627Z" fill="white"/>
<path d="M179.87 3.59576H183.187L178.019 11.1258L172.474 3.59576H175.996L177.829 6.60978L179.87 3.59576Z" fill="white"/>
<path d="M194.766 6.34649L196.864 5.32343C196.586 4.93226 196.124 4.38562 195.406 3.94932C193.525 2.80088 191.087 3.11432 189.505 4.15995C189.113 4.41822 188.332 4.94981 187.904 5.95783C187.786 6.23616 187.558 6.92321 187.702 7.76824C187.872 8.75118 188.458 9.34797 188.792 9.6614C189.97 10.7597 191.431 10.8775 192.099 10.9302C192.721 10.9803 194.288 11.1057 195.76 10.1203C196.409 9.68397 196.829 9.17244 197.074 8.81638L194.905 7.72311C194.791 7.9212 194.523 8.32491 194.015 8.60575C193.376 8.9593 192.774 8.94426 192.463 8.9242C191.965 8.88909 191.206 8.57064 190.923 8.14938C190.496 7.51498 190.706 6.73515 190.756 6.58721C190.809 6.43927 191.047 5.86756 191.634 5.57669C192.296 5.2482 192.943 5.35853 193.269 5.43627C194.068 5.62433 194.564 6.12583 194.764 6.35401L194.766 6.34649Z" fill="white"/>
<path d="M130.698 3.52557H133.684V7.5476C133.684 7.65041 133.706 8.27227 134.217 8.71108C134.859 9.26023 135.681 9.01449 135.747 8.99192C136.235 8.83646 136.508 8.48792 136.601 8.35753V3.52557H139.516V10.7547C139.483 10.9779 139.418 11.2888 139.266 11.6373C139.17 11.858 138.925 12.4122 138.376 12.871C138.022 13.1669 137.638 13.4452 136.51 13.6107C135.711 13.7286 133.878 13.7161 132.935 13.5756V11.848H135.14C135.319 11.8279 135.62 11.7702 135.921 11.5671C136.551 11.1383 136.652 10.4262 136.667 10.2983C136.477 10.3861 136.212 10.5039 135.886 10.6168C135.547 10.7346 134.981 10.9277 134.391 10.9703C133.107 11.0606 132.111 10.3936 131.974 10.3008C131.188 9.75922 130.779 9.1499 130.66 8.71359L130.695 3.53059L130.698 3.52557Z" fill="white"/>
<path d="M168.136 3.59578V10.7547H171.157V6.32895C171.157 6.32895 171.496 4.93729 173.45 5.51903V3.59828C173.45 3.59828 172.171 3.22717 171.193 4.16247L171.016 4.35555V3.59828H168.136V3.59578Z" fill="white"/>
<path d="M56.4254 3.59578V10.7547H59.4467V6.32895C59.4467 6.32895 59.7855 4.93729 61.7398 5.51903V3.59828C61.7398 3.59828 60.4605 3.22717 59.4821 4.16247L59.3051 4.35555V3.59828H56.4254V3.59578Z" fill="white"/>
<path d="M101.58 0.917715L101.628 3.92672C101.221 3.69603 100.108 3.13936 98.6421 3.29232C98.1819 3.33996 96.7939 3.4854 95.7498 4.6564C95.5551 4.87455 94.5792 5.96782 94.7536 7.52498C94.918 8.99437 95.995 9.83439 96.3186 10.0876C97.6864 11.1533 99.6913 11.374 101.107 10.5816C101.433 10.3986 101.673 10.193 101.83 10.04V10.7571H104.604V0.529053C103.597 0.659443 102.589 0.787325 101.582 0.917715H101.58ZM99.7545 9.07461C98.7002 9.07461 97.8457 8.22708 97.8457 7.18145C97.8457 6.13582 98.7002 5.28829 99.7545 5.28829C100.809 5.28829 101.663 6.13582 101.663 7.18145C101.663 8.22708 100.809 9.07461 99.7545 9.07461Z" fill="white"/>
<path d="M65.292 3.59573C64.2959 3.6183 63.4792 3.72111 62.9205 3.80636V5.52149C63.8559 5.44376 64.6473 5.42621 65.2439 5.42621C66.6446 5.42872 67.1174 5.53905 67.4713 5.87254C67.7419 6.12831 67.8632 6.43924 67.9214 6.64736C67.0794 6.359 65.6687 6.02299 64.1062 6.38909C63.0747 6.62981 62.612 7.0285 62.4224 7.21155C62.2126 7.41466 61.7929 8.06911 61.894 8.90411C61.98 9.61624 62.3289 10.045 62.7081 10.3158C64.0557 11.2762 65.6864 10.9954 66.0732 10.9277C66.8064 10.7998 67.3727 10.539 67.7317 10.3384V10.7496H70.4825V5.50143C70.169 4.16243 68.3916 3.52552 65.292 3.59824V3.59573ZM66.1339 9.51845C65.2642 9.51845 64.5588 9.10722 64.5588 8.6007C64.5588 8.09419 65.2642 7.68296 66.1339 7.68296C67.0036 7.68296 67.709 8.09419 67.709 8.6007C67.709 9.10722 67.0036 9.51845 66.1339 9.51845Z" fill="white"/>
<path d="M87.983 3.59573C86.9869 3.6183 86.1703 3.72111 85.6115 3.80636V5.52149C86.547 5.44376 87.3383 5.42621 87.935 5.42621C89.3356 5.42872 89.8084 5.53905 90.1624 5.87254C90.4329 6.12831 90.5542 6.43924 90.6124 6.64736C89.7705 6.359 88.3597 6.02299 86.7973 6.38909C85.7657 6.62981 85.3031 7.0285 85.1135 7.21155C84.9036 7.41466 84.4839 8.06911 84.5851 8.90411C84.671 9.61624 85.0199 10.045 85.3992 10.3158C86.7467 11.2762 88.3774 10.9954 88.7642 10.9277C89.4974 10.7998 90.0638 10.539 90.4228 10.3384V10.7496H93.1735V5.50143C92.86 4.16243 91.0827 3.52552 87.983 3.59824V3.59573ZM88.8249 9.51845C87.9552 9.51845 87.2498 9.10722 87.2498 8.6007C87.2498 8.09419 87.9552 7.68296 88.8249 7.68296C89.6946 7.68296 90.4 8.09419 90.4 8.6007C90.4 9.10722 89.6946 9.51845 88.8249 9.51845Z" fill="white"/>
<path d="M111.197 3.27979C108.381 3.27979 106.095 5.03504 106.095 7.20402C106.095 9.37301 108.378 11.1283 111.197 11.1283C114.016 11.1283 116.299 9.37301 116.299 7.20402C116.299 5.03504 114.016 3.27979 111.197 3.27979ZM111.197 8.869C110.001 8.869 109.031 8.12177 109.031 7.20152C109.031 6.28126 110.001 5.53403 111.197 5.53403C112.393 5.53403 113.364 6.28126 113.364 7.20152C113.364 8.12177 112.393 8.869 111.197 8.869Z" fill="white"/>
<path d="M207.349 3.27979C204.533 3.27979 202.247 5.03504 202.247 7.20402C202.247 9.37301 204.53 11.1283 207.349 11.1283C210.168 11.1283 212.451 9.37301 212.451 7.20402C212.451 5.03504 210.168 3.27979 207.349 3.27979ZM207.349 8.869C206.153 8.869 205.182 8.12177 205.182 7.20152C205.182 6.28126 206.153 5.53403 207.349 5.53403C208.545 5.53403 209.516 6.28126 209.516 7.20152C209.516 8.12177 208.545 8.869 207.349 8.869Z" fill="white"/>
<path d="M20.9693 3.57318H23.7427V7.82841C23.8009 7.98889 23.9425 8.30985 24.2636 8.58066C24.3849 8.68096 24.8855 9.07464 25.5909 8.97935C26.3367 8.87905 26.721 8.31236 26.7766 8.2271V3.57318H29.5729V10.7547C28.7183 10.7547 27.6287 10.7547 26.7766 10.7547V10.0601C26.7235 10.2005 26.6047 10.2883 26.4202 10.3911C26.1193 10.5616 25.3886 10.88 24.4759 10.9327C23.945 10.9628 22.9944 11.0154 22.1297 10.3911C21.2828 9.77924 21.0223 8.88156 20.944 8.55809L20.9667 3.57569L20.9693 3.57318Z" fill="white"/>
<path d="M163.679 8.36753C163.608 8.43022 162.733 9.15489 161.641 8.86151C161.042 8.70103 160.678 8.31488 160.526 8.13183C162.635 7.68549 164.746 7.23916 166.854 6.79282C166.809 6.52703 166.715 6.13837 166.498 5.71209C165.883 4.50598 164.778 3.99195 164.364 3.8089C163.292 3.32997 162.336 3.3751 161.78 3.41021C161.183 3.44531 160.02 3.51552 158.913 4.32795C158.554 4.59124 157.773 5.17799 157.419 6.25622C157.345 6.47939 157.158 7.07868 157.277 7.78329C157.54 9.34044 159.092 10.1805 159.53 10.4162C161.107 11.2687 163.191 11.3164 164.862 10.3685C165.893 9.78427 166.488 8.98187 166.781 8.51046L164.197 7.71057C164.106 7.88609 163.944 8.13684 163.676 8.36753H163.679ZM161.072 5.3811C161.643 5.06516 162.518 4.91972 163.181 5.35853C163.433 5.52403 163.588 5.73215 163.679 5.87508L160.028 6.6499C160.101 6.44177 160.364 5.77227 161.07 5.3811H161.072Z" fill="white"/>
</g>
<defs>
<clipPath id="clip0_208_863">
<rect width="226" height="56" fill="white"/>
</clipPath>
</defs>
</svg>
