<svg width="100" height="100" viewBox="0 0 100 100" fill="none" xmlns="http://www.w3.org/2000/svg">
<path d="M49.1322 0.417895C49.6806 0.153812 50.3194 0.153812 50.8678 0.417895L88.2238 18.4076C88.7722 18.6717 89.1705 19.1711 89.3059 19.7645L98.5321 60.187C98.6675 60.7804 98.5254 61.4032 98.1459 61.8791L72.2947 94.2954C71.9152 94.7713 71.3397 95.0484 70.731 95.0484H29.269C28.6603 95.0484 28.0848 94.7713 27.7053 94.2954L1.85412 61.8791C1.47463 61.4032 1.33249 60.7804 1.46793 60.187L10.6941 19.7645C10.8295 19.1711 11.2278 18.6717 11.7762 18.4076L49.1322 0.417895Z" fill="white"/>
<path d="M55.2056 41.7045L58.2778 48.5455H42.7222L45.4833 41.7045H55.2056ZM44.6667 50.5C43.5972 50.5 42.7222 51.3795 42.7222 52.4545C42.7222 53.5295 43.5972 54.4091 44.6667 54.4091C45.7361 54.4091 46.6111 53.5295 46.6111 52.4545C46.6111 51.3795 45.7361 50.5 44.6667 50.5ZM56.3333 50.5C55.2639 50.5 54.3889 51.3795 54.3889 52.4545C54.3889 53.5295 55.2639 54.4091 56.3333 54.4091C57.4028 54.4091 58.2778 53.5295 58.2778 52.4545C58.2778 51.3795 57.4028 50.5 56.3333 50.5ZM68 36.8182V48.5455C68 59.3932 60.5333 69.5373 50.5 72C40.4667 69.5373 33 59.3932 33 48.5455V36.8182L50.5 29L68 36.8182ZM62.1667 50.5L57.9667 40.7273C57.5778 39.5936 56.4889 38.7727 55.2056 38.7727H45.4833C44.2 38.7727 43.1111 39.5936 42.7222 40.7273L38.8333 50.5V58.3182C38.8333 59.3932 39.7083 60.2727 40.7778 60.2727H42.7222C43.7917 60.2727 44.6667 59.3932 44.6667 58.3182V56.3636H56.3333V58.3182C56.3333 59.3932 57.2083 60.2727 58.2778 60.2727H60.2222C61.2917 60.2727 62.1667 59.3932 62.1667 58.3182V50.5Z" fill="#F32735"/>
</svg>
