<svg width="100" height="100" viewBox="0 0 100 100" fill="none" xmlns="http://www.w3.org/2000/svg">
<path d="M49.1322 0.417895C49.6806 0.153812 50.3194 0.153812 50.8678 0.417895L88.2238 18.4076C88.7722 18.6717 89.1705 19.1711 89.3059 19.7645L98.5321 60.187C98.6675 60.7804 98.5254 61.4032 98.1459 61.8791L72.2947 94.2954C71.9152 94.7713 71.3397 95.0484 70.731 95.0484H29.269C28.6603 95.0484 28.0848 94.7713 27.7053 94.2954L1.85412 61.8791C1.47463 61.4032 1.33249 60.7804 1.46793 60.187L10.6941 19.7645C10.8295 19.1711 11.2278 18.6717 11.7762 18.4076L49.1322 0.417895Z" fill="white"/>
<path d="M69.6728 60.3314H38.3233C38.7499 59.4923 39.1785 58.6342 39.6013 57.7629C39.6478 57.6698 39.6924 57.573 39.737 57.4857C42.3668 57.1819 45.3185 55.3481 48.5649 51.9993C49.5986 54.2888 51.2936 56.7206 53.9272 57.2085C54.9454 57.3984 56.5434 57.3585 58.3683 56.1055C59.009 55.6579 59.5993 55.145 60.1293 54.5754C61.7447 56.022 64.6053 57.294 69.6728 57.294C70.29 57.294 70.8819 57.0539 71.3184 56.6267C71.7548 56.1995 72 55.62 72 55.0159C72 54.4117 71.7548 53.8322 71.3184 53.405C70.8819 52.9778 70.29 52.7378 69.6728 52.7378C63.3389 52.7378 62.728 50.5337 62.6911 50.3458C62.664 49.8299 62.4585 49.3384 62.1085 48.9519C61.7585 48.5654 61.2847 48.3068 60.7648 48.2185C60.2449 48.1302 59.7097 48.2175 59.2472 48.4661C58.7846 48.7146 58.4221 49.1097 58.219 49.5864C56.4018 52.2309 55.1936 52.8137 54.7941 52.7378C53.8419 52.5612 52.3796 49.7573 51.7843 46.9685C51.6896 46.5177 51.4576 46.1056 51.119 45.7864C50.7804 45.4671 50.3509 45.2558 49.8871 45.1802C49.4234 45.1045 48.9471 45.1682 48.5211 45.3627C48.095 45.5572 47.7391 45.8735 47.5002 46.2699C45.5609 48.6201 43.9008 50.2433 42.52 51.3007C46.6528 41.203 45.846 37.5334 44.7444 35.6255C43.7748 33.9416 42.0294 33.0095 39.8263 33H39.7642C36.2734 33.0247 33.4749 36.1628 32.2531 41.4043C31.584 44.2766 31.4774 47.4564 31.97 50.1256C32.482 52.9143 33.5854 54.9988 35.1912 56.2422C34.4989 57.6433 33.7949 59.0196 33.1064 60.3314H29.3344C28.7172 60.3314 28.1252 60.5714 27.6888 60.9986C27.2524 61.4259 27.0072 62.0053 27.0072 62.6095C27.0072 63.2137 27.2524 63.7931 27.6888 64.2204C28.1252 64.6476 28.7172 64.8876 29.3344 64.8876H30.6299C28.7526 68.2421 27.364 70.5069 27.333 70.5467C27.1754 70.8031 27.071 71.0874 27.0257 71.3833C26.9804 71.6792 26.9951 71.981 27.0689 72.2713C27.1428 72.5617 27.2743 72.8349 27.456 73.0755C27.6378 73.3161 27.8662 73.5193 28.1281 73.6734C28.4916 73.8894 28.9092 74.0025 29.3344 74C29.736 74.0003 30.1308 73.8989 30.4805 73.7056C30.8302 73.5123 31.1228 73.2337 31.33 72.897C31.4502 72.6977 33.4497 69.4438 35.9282 64.8876H69.6728C70.29 64.8876 70.8819 64.6476 71.3184 64.2204C71.7548 63.7931 72 63.2137 72 62.6095C72 62.0053 71.7548 61.4259 71.3184 60.9986C70.8819 60.5714 70.29 60.3314 69.6728 60.3314ZM62.6911 50.4597V50.3572C62.6941 50.3913 62.6941 50.4256 62.6911 50.4597ZM36.7892 42.4123C37.435 39.6387 38.7286 37.5505 39.8069 37.5505C40.5186 37.5505 40.6311 37.7403 40.699 37.8618C40.9763 38.344 41.9692 41.1062 37.3206 51.6823C36.9468 50.9362 36.6868 50.1405 36.5488 49.3206C36.1726 47.0243 36.2543 44.6783 36.7892 42.4123Z" fill="#F32735"/>
</svg>
