<svg width="100" height="100" viewBox="0 0 100 100" fill="none" xmlns="http://www.w3.org/2000/svg">
<path d="M49.1322 0.417895C49.6806 0.153812 50.3194 0.153812 50.8678 0.417895L88.2238 18.4076C88.7722 18.6717 89.1705 19.1711 89.3059 19.7645L98.5321 60.187C98.6675 60.7804 98.5254 61.4032 98.1459 61.8791L72.2947 94.2954C71.9152 94.7713 71.3397 95.0484 70.731 95.0484H29.269C28.6603 95.0484 28.0848 94.7713 27.7053 94.2954L1.85412 61.8791C1.47463 61.4032 1.33249 60.7804 1.46793 60.187L10.6941 19.7645C10.8295 19.1711 11.2278 18.6717 11.7762 18.4076L49.1322 0.417895Z" fill="white"/>
<path d="M71.1252 65.9584C72.2297 65.9584 73.1252 65.063 73.1252 63.9584C73.1252 62.8538 72.2297 61.9584 71.1252 61.9584V65.9584ZM27.5835 63.9584H25.5835C25.5835 65.063 26.4789 65.9584 27.5835 65.9584V63.9584ZM43.6252 63.9584V65.9584C44.7297 65.9584 45.6252 65.063 45.6252 63.9584H43.6252ZM43.6252 47.9167H45.6252C45.6252 46.8122 44.7297 45.9167 43.6252 45.9167V47.9167ZM35.6043 47.9167V45.9167C35.1015 45.9167 34.6172 46.1061 34.2477 46.4472L35.6043 47.9167ZM27.5835 55.3211L26.2269 53.8516C25.8168 54.2302 25.5835 54.763 25.5835 55.3211H27.5835ZM41.6252 61.6667C41.6252 62.805 42.0773 63.8966 42.8822 64.7014L45.7106 61.873C45.6559 61.8183 45.6252 61.7441 45.6252 61.6667H41.6252ZM42.8822 64.7014C43.687 65.5063 44.7786 65.9584 45.9168 65.9584V61.9584C45.8395 61.9584 45.7653 61.9277 45.7106 61.873L42.8822 64.7014ZM45.9168 65.9584H71.1252V61.9584H45.9168V65.9584ZM27.5835 65.9584H43.6252V61.9584H27.5835V65.9584ZM45.6252 63.9584V47.9167H41.6252V63.9584H45.6252ZM43.6252 45.9167H35.6043V49.9167H43.6252V45.9167ZM34.2477 46.4472L26.2269 53.8516L28.9401 56.7907L36.9609 49.3863L34.2477 46.4472ZM25.5835 55.3211V63.9584H29.5835V55.3211H25.5835Z" fill="#F32735"/>
<path d="M43.6252 66.25C43.6252 67.4656 43.1423 68.6314 42.2827 69.4909C41.4232 70.3504 40.2574 70.8333 39.0418 70.8333C37.8263 70.8333 36.6605 70.3504 35.8009 69.4909C34.9414 68.6314 34.4585 67.4656 34.4585 66.25M68.8335 66.25C68.8335 67.4656 68.3506 68.6314 67.4911 69.4909C66.6315 70.3504 65.4657 70.8333 64.2502 70.8333C63.0346 70.8333 61.8688 70.3504 61.0093 69.4909C60.1497 68.6314 59.6668 67.4656 59.6668 66.25" stroke="#F32735" stroke-width="4" stroke-linecap="round" stroke-linejoin="round"/>
<path d="M67.385 42.2105C67.131 41.5022 66.4416 41.0417 65.6252 41.0417H52.5808C51.7463 41.0417 51.075 41.5022 50.8029 42.2105L48.2085 49.4886L48.2266 59.2459C48.2266 59.9188 48.7891 60.5209 49.4785 60.5209H50.6033C51.2927 60.5209 51.837 59.848 51.837 59.1751V56.9792H66.3509V59.1751C66.3509 59.848 66.9133 60.5209 67.6027 60.5209H68.7094C69.3988 60.5209 69.9612 59.9188 69.9612 59.2459L69.9793 56.8199V49.4886L67.385 42.2105ZM52.5808 42.8126H65.6252L67.4938 48.1251H50.7121L52.5808 42.8126ZM51.837 53.4376C50.8391 53.4376 50.0227 52.6407 50.0227 51.6667C50.0227 50.6928 50.8391 49.8959 51.837 49.8959C52.8348 49.8959 53.6512 50.6928 53.6512 51.6667C53.6512 52.6407 52.8348 53.4376 51.837 53.4376ZM66.3509 53.4376C65.353 53.4376 64.5366 52.6407 64.5366 51.6667C64.5366 50.6928 65.353 49.8959 66.3509 49.8959C67.3487 49.8959 68.1651 50.6928 68.1651 51.6667C68.1651 52.6407 67.3487 53.4376 66.3509 53.4376Z" fill="#F32735"/>
</svg>
