<svg width="100" height="100" viewBox="0 0 100 100" fill="none" xmlns="http://www.w3.org/2000/svg">
<path d="M49.1322 0.417895C49.6806 0.153812 50.3194 0.153812 50.8678 0.417895L88.2238 18.4076C88.7722 18.6717 89.1705 19.1711 89.3059 19.7645L98.5321 60.187C98.6675 60.7804 98.5254 61.4032 98.1459 61.8791L72.2947 94.2954C71.9152 94.7713 71.3397 95.0484 70.731 95.0484H29.269C28.6603 95.0484 28.0848 94.7713 27.7053 94.2954L1.85412 61.8791C1.47463 61.4032 1.33249 60.7804 1.46793 60.187L10.6941 19.7645C10.8295 19.1711 11.2278 18.6717 11.7762 18.4076L49.1322 0.417895Z" fill="white"/>
<mask id="mask0_323_21" style="mask-type:luminance" maskUnits="userSpaceOnUse" x="31" y="35" width="42" height="38">
<path d="M47.822 60.3218L53.4192 62.1875C53.4192 62.1875 67.4124 59.3889 69.2781 59.3889C71.1439 59.3889 71.1439 61.2547 69.2781 63.1204C67.4124 64.9862 60.8822 70.5834 55.285 70.5834C49.6877 70.5834 45.9562 67.7848 42.2247 67.7848H32.896" stroke="white" stroke-width="3" stroke-linecap="round" stroke-linejoin="round"/>
<path d="M32.896 56.5904C34.7617 54.7246 38.4932 51.926 42.2247 51.926C45.9562 51.926 54.8186 55.6575 56.2179 57.5232C57.6172 59.389 53.4192 62.1876 53.4192 62.1876M44.0905 46.3287V38.8657C44.0905 38.3709 44.2871 37.8964 44.637 37.5465C44.9869 37.1966 45.4614 37 45.9562 37H68.3452C68.8401 37 69.3146 37.1966 69.6645 37.5465C70.0144 37.8964 70.211 38.3709 70.211 38.8657V53.7917" stroke="white" stroke-width="3" stroke-linecap="round" stroke-linejoin="round"/>
<path d="M52.4863 37H61.8151V45.3959H52.4863V37Z" fill="white" stroke="white" stroke-width="3" stroke-linecap="round" stroke-linejoin="round"/>
</mask>
<g mask="url(#mask0_323_21)">
<path d="M29.1646 29.5369H73.9425V74.3149H29.1646V29.5369Z" fill="#F32735"/>
</g>
</svg>
