<svg width="100" height="100" viewBox="0 0 100 100" fill="none" xmlns="http://www.w3.org/2000/svg">
<path d="M49.1322 0.417895C49.6806 0.153812 50.3194 0.153812 50.8678 0.417895L88.2238 18.4076C88.7722 18.6717 89.1705 19.1711 89.3059 19.7645L98.5321 60.187C98.6675 60.7804 98.5254 61.4032 98.1459 61.8791L72.2947 94.2954C71.9152 94.7713 71.3397 95.0484 70.731 95.0484H29.269C28.6603 95.0484 28.0848 94.7713 27.7053 94.2954L1.85412 61.8791C1.47463 61.4032 1.33249 60.7804 1.46793 60.187L10.6941 19.7645C10.8295 19.1711 11.2278 18.6717 11.7762 18.4076L49.1322 0.417895Z" fill="white"/>
<path d="M67 43.9167C67 45.2649 66.4752 46.5578 65.541 47.5111C64.6068 48.4644 63.3398 49 62.0187 49C60.6975 49 59.4305 48.4644 58.4963 47.5111C57.5621 46.5578 57.0373 45.2649 57.0373 43.9167C57.0373 42.5685 57.5621 41.2756 58.4963 40.3223C59.4305 39.369 60.6975 38.8334 62.0187 38.8334C63.3398 38.8334 64.6068 39.369 65.541 40.3223C66.4752 41.2756 67 42.5685 67 43.9167ZM30.8146 33.8797V43.0992H29.4637C29.4028 43.0994 29.3425 43.0873 29.2862 43.0636C29.2299 43.04 29.1787 43.0052 29.1357 42.9613C29.0926 42.9174 29.0584 42.8652 29.0351 42.8078C29.0118 42.7504 28.9999 42.6888 29 42.6267V30.7304C29 30.3276 29.2943 30 29.698 30H35.6716C36.0745 30 36.3696 30.3269 36.3696 30.729V31.4273H45.6049C45.8631 31.4273 46.0693 31.6384 46.0693 31.8984V34.5732H38.1855V33.8728C38.1855 33.4706 37.8905 33.1438 37.4862 33.1438H31.5146C31.1103 33.1438 30.8146 33.4762 30.8146 33.8797Z" fill="#F32735"/>
<path d="M49.9318 48.3014C49.9318 48.3619 49.9199 48.4218 49.8967 48.4777C49.8735 48.5335 49.8396 48.5843 49.7968 48.6269C49.7539 48.6696 49.7031 48.7033 49.6473 48.7262C49.5914 48.7491 49.5315 48.7607 49.4712 48.7604H33.46C33.3996 48.7606 33.3398 48.749 33.284 48.726C33.2281 48.703 33.1774 48.6692 33.1346 48.6264C33.0919 48.5837 33.058 48.533 33.0349 48.4771C33.0118 48.4212 32.9999 48.3612 33 48.3007V36.7115C33 36.3191 33.292 36 33.6923 36H39.6165C40.0176 36 40.3102 36.3184 40.3102 36.7102V37.3904H49.4712C49.7266 37.3904 49.9318 37.5962 49.9318 37.8494V48.3014ZM42.8296 41.703V38.9696H40.1009V41.703H37.3729V44.4377H40.1009V47.1717H42.8296V44.4377H45.5576V41.703H42.8296ZM67.033 49.8874C67.6837 49.8869 68.3281 50.0148 68.9295 50.264C69.5308 50.5131 70.0772 50.8786 70.5375 51.3395C70.9979 51.8004 71.3631 52.3477 71.6123 52.9501C71.8614 53.5525 71.9897 54.1982 71.9898 54.8503L72 73H55.373V57.9544H54.6996L51.6336 62.5391C51.1343 63.2215 50.1208 63.5521 49.3127 63.5521H42.1142C41.5402 63.5523 40.9895 63.324 40.5833 62.9176C40.1771 62.5111 39.9485 61.9596 39.9478 61.3843C39.9478 60.1894 40.9186 59.2457 42.1142 59.2457H48.6616L53.2039 52.3627C54.2918 50.698 56.4203 49.8935 58.1336 49.8935L67.0324 49.8881L67.033 49.8874Z" fill="#F32735"/>
</svg>
