<svg width="148" height="148" viewBox="0 0 148 148" fill="none" xmlns="http://www.w3.org/2000/svg">
<g clip-path="url(#clip0_209_44)">
<path d="M74 0C114.842 0 148 33.1582 148 74C148 114.842 114.842 148 74 148C33.1582 148 0 114.842 0 74C0 33.1582 33.1582 0 74 0ZM20.0108 108.157C25.771 117.265 33.7421 124.767 43.182 129.965C52.6219 135.163 63.2236 137.888 74 137.887C96.6995 137.887 116.655 126.022 127.989 108.157L74 87.5852L20.0108 108.157ZM85.766 67.2043L130.579 103.68C135.393 94.5286 137.902 84.3405 137.887 74C137.887 39.6085 110.648 11.5255 76.59 10.1627L85.766 67.2043ZM71.41 10.1627C37.3515 11.5255 10.1133 39.6085 10.1133 74C10.1133 84.7115 12.7527 94.8063 17.4208 103.68L62.234 67.2043L71.41 10.1627Z" fill="white"/>
<path d="M74.0002 140.292C110.612 140.292 140.292 110.612 140.292 73.9999C140.292 37.388 110.612 7.70825 74.0002 7.70825C37.3883 7.70825 7.7085 37.388 7.7085 73.9999C7.7085 110.612 37.3883 140.292 74.0002 140.292Z" stroke="black" stroke-linecap="round" stroke-linejoin="round"/>
<path d="M74 73.9999V7.70825M74 73.9999L16.5884 107.146M74 73.9999L131.412 107.146M74 73.9999V83.6816M74 73.9999L82.3867 69.1591M74 73.9999L65.6134 69.1591M74 7.70825L65.6134 69.1591M74 7.70825L82.3867 69.1591M16.5884 107.146L74 83.6816M16.5884 107.146L65.6134 69.1591M131.412 107.146L82.3867 69.1591M131.412 107.146L74 83.6816" stroke="black" stroke-linecap="round" stroke-linejoin="round"/>
</g>
<defs>
<clipPath id="clip0_209_44">
<rect width="148" height="148" fill="white"/>
</clipPath>
</defs>
</svg>
